/* XPM */
static char * close_pressed_xpm[] = {
"32 35 30 1",
" 	c None",
".	c #282C2C",
"+	c #424B4B",
"@	c #424A4A",
"#	c #414A4A",
"$	c #414949",
"%	c #5F3333",
"&	c #9E0707",
"*	c #AA0000",
"=	c #9E0808",
"-	c #5F3434",
";	c #404949",
">	c #9D0808",
",	c #404848",
"'	c #3F4747",
")	c #FFFFFF",
"!	c #3E4646",
"~	c #3E4545",
"{	c #3D4545",
"]	c #3D4444",
"^	c #3C4343",
"/	c #3B4242",
"(	c #9D0707",
"_	c #3B4141",
":	c #5B2E2E",
"<	c #5A2E2E",
"[	c #3A4141",
"}	c #3A4040",
"|	c #394040",
"1	c #393F3F",
"................................",
"++++++++++++++++++++++++++++++++",
"++++++++++++++++++++++++++++++++",
"@@@@@@@@@@@@@@@@@@@@@@@@@@@@@@@@",
"################################",
"################################",
"$$$$$%&******************=-$$$$$",
";;;;;=********************>;;;;;",
",,,,,**********************,,,,,",
",,,,,**********************,,,,,",
",,,,,**********************,,,,,",
"'''''**********************'''''",
"'''''**********************'''''",
"'''''*******))****))*******'''''",
"!!!!!*******)))**)))*******!!!!!",
"!!!!!********))))))********!!!!!",
"~~~~~*********))))*********~~~~~",
"~~~~~*********))))*********~~~~~",
"{{{{{********))))))********{{{{{",
"]]]]]*******)))**)))*******]]]]]",
"]]]]]*******))****))*******]]]]]",
"^^^^^**********************^^^^^",
"^^^^^**********************^^^^^",
"^^^^^**********************^^^^^",
"/////**********************/////",
"/////**********************/////",
"/////(********************(/////",
"_____:(******************(<_____",
"[[[[[[[[[[[[[[[[[[[[[[[[[[[[[[[[",
"}}}}}}}}}}}}}}}}}}}}}}}}}}}}}}}}",
"}}}}}}}}}}}}}}}}}}}}}}}}}}}}}}}}",
"||||||||||||||||||||||||||||||||",
"11111111111111111111111111111111",
"11111111111111111111111111111111",
"................................"};
