/* XPM */
static char * close_prelight_xpm[] = {
"22 34 42 1",
" 	c None",
".	c #8E8E8E",
"+	c #D1D2D2",
"@	c #D0D1D1",
"#	c #CFD0D0",
"$	c #CDCECF",
"%	c #B7B8B8",
"&	c #8C8C8D",
"*	c #848485",
"=	c #8B8C8C",
"-	c #838484",
";	c #828383",
">	c #818282",
",	c #808182",
"'	c #808080",
")	c #7F8080",
"!	c #7E7F7F",
"~	c #FFFFFF",
"{	c #7D7E7E",
"]	c #7C7D7D",
"^	c #7C7D7E",
"/	c #7A7A7B",
"(	c #7C7C7C",
"_	c #7A7C7C",
":	c #7A7B7B",
"<	c #797A7A",
"[	c #78797A",
"}	c #7A7B7C",
"|	c #7B7C7C",
"1	c #7E7F80",
"2	c #828384",
"3	c #8C8D8E",
"4	c #848585",
"5	c #BABBBC",
"6	c #8E8F90",
"7	c #868787",
"8	c #BBBCBD",
"9	c #D4D4D5",
"0	c #D7D8D8",
"a	c #BEBEBE",
"b	c #F5F5F5",
"c	c #EDEDED",
"......................",
"++++++++++++++++++++++",
"@@@@@@@@@@@@@@@@@@@@@@",
"######################",
"$$$$$$$$$$$$$$$$$$$$$$",
"%&******************&%",
"=--------------------=",
";;;;;;;;;;;;;;;;;;;;;;",
">>>>>>>>>>>>>>>>>>>>>>",
",,,,,,,,,,,,,,,,,,,,,,",
"''''''''''''''''''''''",
"))))))))))))))))))))))",
"!!!!!!!~~!!!)~~!!!!)!!",
"{{{{{{{~~~{{~~~{{{{]{{",
"^^^^^^^^~~~~~~^^^^^/^^",
"(((((((((~~~~(((((((((",
"_________~~~~_________",
"::::::::~~~~~~::::::::",
"<<<<<<<~~~<<~~~<<<<<<<",
"[[[[[[[~~[[[}~~[[[[}[[",
"}}}}}}}}}}}}|}}}}}}|}}",
"^^^^^^^^^^^^/^^^^^^/^^",
"1111111111111111111111",
",,,,,,,,,,,,,,,,,,,,,,",
"2222222222222222222222",
"3444444444444444444443",
"5677777777777777777768",
"9999999999999999999999",
"0000000000000000000000",
"0000000000000000000000",
"aaaaaaaaaaaaaaaaaaaaaa",
"bbbbbbbbbbbbbbbbbbbbbb",
"cccccccccccccccccccccc",
"cccccccccccccccccccccc"};
