/* XPM */
static char * hide_active_xpm[] = {
"22 34 37 1",
" 	c None",
".	c #8E8E8E",
"+	c #D1D2D2",
"@	c #D0D1D1",
"#	c #CFD0D0",
"$	c #CDCECF",
"%	c #CCCDCE",
"&	c #CBCCCC",
"*	c #CACBCB",
"=	c #C8C9CA",
"-	c #C7C8C9",
";	c #C6C7C7",
">	c #C5C6C6",
",	c #C3C5C5",
"'	c #C5C7C7",
")	c #C2C3C4",
"!	c #C1C2C2",
"~	c #C1C2C3",
"{	c #BEBEBF",
"]	c #C0C1C1",
"^	c #BEC0C0",
"/	c #BDBFBF",
"(	c #BCBDBE",
"_	c #FFFFFF",
":	c #BABCBD",
"<	c #BDBFC0",
"[	c #BEBFC0",
"}	c #939393",
"|	c #BFC0C0",
"1	c #C4C5C6",
"2	c #CACBCC",
"3	c #D0D1D2",
"4	c #D4D4D5",
"5	c #D7D8D8",
"6	c #BEBEBE",
"7	c #F5F5F5",
"8	c #EDEDED",
"......................",
"++++++++++++++++++++++",
"@@@@@@@@@@@@@@@@@@@@@@",
"######################",
"$$$$$$$$$$$$$$$$$$$$$$",
"%%%%%%%%%%%%%%%%%%%%%%",
"&&&&&&&&&&&&&&&&&&&&&&",
"**********************",
"======================",
"----------------------",
";;;;;;;;;;;;;;;;;;;;;;",
">>>>>>>>>>>>>>>>>>>>>>",
",,,,,,,,,,,,',,,,,,',,",
"))))))))))))!))))))!))",
"~~~~~~~~~~~~{~~~~~~{~~",
"]]]]]]]]]]]]]]]]]]]]]]",
"^^^^^^^^^^^^^^^^^^^^^^",
"//////////////////////",
"(((((((________(((((((",
":::::::________::::<::",
"[[[[[[[}}}}}}}}[[[[|[[",
"~~~~~~~~~~~~{~~~~~~{~~",
"1111111111111111111111",
"----------------------",
"2222222222222222222222",
"$$$$$$$$$$$$$$$$$$$$$$",
"3333333333333333333333",
"4444444444444444444444",
"5555555555555555555555",
"5555555555555555555555",
"6666666666666666666666",
"7777777777777777777777",
"8888888888888888888888",
"8888888888888888888888"};
