/* XPM */
static char * maximize_pressed_xpm[] = {
"22 34 43 1",
" 	c None",
".	c #8E8E8E",
"+	c #D1D2D2",
"@	c #D0D1D1",
"#	c #CFD0D0",
"$	c #CDCECF",
"%	c #ADAEAF",
"&	c #6F6F70",
"*	c #646464",
"=	c #AEAFB0",
"-	c #6E6F6F",
";	c #636464",
">	c #6F7070",
",	c #636363",
"'	c #626263",
")	c #616262",
"!	c #616161",
"~	c #606161",
"{	c #5F6060",
"]	c #FFFFFF",
"^	c #5F5F60",
"/	c #5E5F5F",
"(	c #5D5D5D",
"_	c #5E5E5E",
":	c #5D5E5E",
"<	c #5C5D5D",
"[	c #5C5C5D",
"}	c #5B5C5C",
"|	c #5C5D5E",
"1	c #5D5D5E",
"2	c #606061",
"3	c #636364",
"4	c #646465",
"5	c #707171",
"6	c #B1B2B3",
"7	c #717172",
"8	c #656666",
"9	c #727273",
"0	c #D4D4D5",
"a	c #D7D8D8",
"b	c #BEBEBE",
"c	c #F5F5F5",
"d	c #EDEDED",
"......................",
"++++++++++++++++++++++",
"@@@@@@@@@@@@@@@@@@@@@@",
"######################",
"$$$$$$$$$$$$$$$$$$$$$$",
"%&******************&=",
"-;;;;;;;;;;;;;;;;;;;;>",
",,,,,,,,,,,,,,,,,,,,,,",
"''''''''''''''''''''''",
"))))))))))))))))))))))",
"!!!!!!!!!!!!!!!!!!!!!!",
"~~~~~~~~~~~~~~~~~~~~~~",
"{{{{{{{]]]]]]]]{{{{~{{",
"^^^^^^^]]]]]]]]^^^^/^^",
"///////]]///(]]////(//",
"_______]]____]]_______",
":::::::]]::::]]:::::::",
"<<<<<<<]]<<<<]]<<<<<<<",
"[[[[[[[]]]]]]]][[[[[[[",
"}}}}}}}]]]]]]]]}}}}|}}",
"111111111111:111111:11",
"////////////(//////(//",
"2222222222222222222222",
"))))))))))))))))))))))",
"3333333333333333333333",
">444444444444444444445",
"6788888888888888888896",
"0000000000000000000000",
"aaaaaaaaaaaaaaaaaaaaaa",
"aaaaaaaaaaaaaaaaaaaaaa",
"bbbbbbbbbbbbbbbbbbbbbb",
"cccccccccccccccccccccc",
"dddddddddddddddddddddd",
"dddddddddddddddddddddd"};
