/* XPM */
static char * menu_active_xpm[] = {
"26 16 7 1",
" 	c None",
".	c #F5F5F5",
"+	c #F4F4F4",
"@	c #F3F3F3",
"#	c #F2F2F2",
"$	c #F1F1F1",
"%	c #F0F0F0",
"..........................",
"++++++++++++++++++++++++++",
"++++++++++++++++++++++++++",
"++++++++++++++++++++++++++",
"@@@@@@@@@@@@@@@@@@@@@@@@@@",
"@@@@@@@@@@@@@@@@@@@@@@@@@@",
"@@@@@@@@@@@@@@@@@@@@@@@@@@",
"##########################",
"##########################",
"##########################",
"$$$$$$$$$$$$$$$$$$$$$$$$$$",
"$$$$$$$$$$$$$$$$$$$$$$$$$$",
"$$$$$$$$$$$$$$$$$$$$$$$$$$",
"%%%%%%%%%%%%%%%%%%%%%%%%%%",
"%%%%%%%%%%%%%%%%%%%%%%%%%%",
"%%%%%%%%%%%%%%%%%%%%%%%%%%"};
