/* XPM */
static char * title_5_active_xpm[] = {
"8 34 30 1",
" 	c None",
".	c #8E8E8E",
"+	c #D1D2D2",
"@	c #D0D1D1",
"#	c #CFD0D0",
"$	c #CDCECF",
"%	c #CCCDCE",
"&	c #CBCCCC",
"*	c #CACBCB",
"=	c #C8C9CA",
"-	c #C7C8C9",
";	c #C6C7C7",
">	c #C5C6C6",
",	c #C3C5C5",
"'	c #C2C3C4",
")	c #C1C2C3",
"!	c #C0C1C1",
"~	c #BEC0C0",
"{	c #BDBFBF",
"]	c #BCBDBE",
"^	c #BABCBD",
"/	c #BEBFC0",
"(	c #C4C5C6",
"_	c #CACBCC",
":	c #D0D1D2",
"<	c #D4D4D5",
"[	c #D7D8D8",
"}	c #BEBEBE",
"|	c #F5F5F5",
"1	c #EDEDED",
"........",
"++++++++",
"@@@@@@@@",
"########",
"$$$$$$$$",
"%%%%%%%%",
"&&&&&&&&",
"********",
"========",
"--------",
";;;;;;;;",
">>>>>>>>",
",,,,,,,,",
"''''''''",
"))))))))",
"!!!!!!!!",
"~~~~~~~~",
"{{{{{{{{",
"]]]]]]]]",
"^^^^^^^^",
"////////",
"))))))))",
"((((((((",
"--------",
"________",
"$$$$$$$$",
"::::::::",
"<<<<<<<<",
"[[[[[[[[",
"[[[[[[[[",
"}}}}}}}}",
"||||||||",
"11111111",
"11111111"};
