/* XPM */
static char * title_4_active_xpm[] = {
"10 34 75 1",
" 	c None",
".	c #8E8E8E",
"+	c #FFFFFF",
"@	c #D1D2D2",
"#	c #F7F7F7",
"$	c #8F8F8F",
"%	c #D0D1D1",
"&	c #919191",
"*	c #CFD0D0",
"=	c #F6F6F6",
"-	c #939393",
";	c #CDCECF",
">	c #959595",
",	c #CCCDCE",
"'	c #979797",
")	c #CBCCCC",
"!	c #F5F5F5",
"~	c #999999",
"{	c #CACBCB",
"]	c #9A9A9A",
"^	c #C8C9CA",
"/	c #9C9C9C",
"(	c #C7C8C9",
"_	c #F4F4F4",
":	c #9E9E9E",
"<	c #C6C7C7",
"[	c #A0A0A0",
"}	c #C5C6C6",
"|	c #A2A2A2",
"1	c #C3C5C5",
"2	c #F3F3F3",
"3	c #A4A4A4",
"4	c #C2C3C4",
"5	c #A5A5A5",
"6	c #C1C2C3",
"7	c #A7A7A7",
"8	c #C0C1C1",
"9	c #F2F2F2",
"0	c #A9A9A9",
"a	c #BEC0C0",
"b	c #ABABAB",
"c	c #BDBFBF",
"d	c #ADADAD",
"e	c #BCBDBE",
"f	c #F1F1F1",
"g	c #AFAFAF",
"h	c #BABCBD",
"i	c #B1B1B1",
"j	c #BEBFC0",
"k	c #B2B2B2",
"l	c #F0F0F0",
"m	c #B4B4B4",
"n	c #C4C5C6",
"o	c #B6B6B6",
"p	c #B8B8B8",
"q	c #CACBCC",
"r	c #EFEFEF",
"s	c #BABABA",
"t	c #BEBEBE",
"u	c #CFD0D1",
"v	c #D0D1D2",
"w	c #CBCBCB",
"x	c #CECECF",
"y	c #D4D4D5",
"z	c #EEEEEE",
"A	c #DFDFDF",
"B	c #C3C3C3",
"C	c #D5D6D6",
"D	c #D7D8D8",
"E	c #D6D6D6",
"F	c #C1C1C1",
"G	c #CECFCF",
"H	c #D6D7D7",
"I	c #E4E4E4",
"J	c #EDEDED",
"..........",
"+++.@@@@@@",
"###$%%%%%%",
"###&******",
"===-;;;;;;",
"===>,,,,,,",
"==='))))))",
"!!!~{{{{{{",
"!!!]^^^^^^",
"!!!/((((((",
"___:<<<<<<",
"___[}}}}}}",
"___|111111",
"2223444444",
"2225666666",
"2227888888",
"9990aaaaaa",
"999bcccccc",
"999deeeeee",
"fffghhhhhh",
"fffijjjjjj",
"fffk666666",
"lllmnnnnnn",
"lllo((((((",
"lllpqqqqqq",
"rrrs;;;;;;",
"rrrtuvvvvv",
"rrrwxyyyyy",
"zzzABCDDDD",
"zzzlEFGHDD",
"zzzz9IBttt",
"JJJJJr!!!!",
"JJJJJJJJJJ",
"JJJJJJJJJJ"};
