/* XPM */
static char * top_right_active_xpm[] = {
"5 34 35 1",
" 	c None",
".	c #8E8E8E",
"+	c #C9CACA",
"@	c #ABABAB",
"#	c #909090",
"$	c #D0D1D1",
"%	c #C8C8C8",
"&	c #CFD0D0",
"*	c #AAAAAA",
"=	c #CDCECF",
"-	c #C5C5C6",
";	c #CCCDCE",
">	c #CBCCCC",
",	c #CACBCB",
"'	c #C8C9CA",
")	c #C7C8C9",
"!	c #C6C7C7",
"~	c #C5C6C6",
"{	c #C3C5C5",
"]	c #C2C3C4",
"^	c #C1C2C3",
"/	c #C0C1C1",
"(	c #BEC0C0",
"_	c #BDBFBF",
":	c #BCBDBE",
"<	c #BABCBD",
"[	c #BEBFC0",
"}	c #C4C5C6",
"|	c #CACBCC",
"1	c #D0D1D2",
"2	c #D4D4D5",
"3	c #D7D8D8",
"4	c #BEBEBE",
"5	c #F5F5F5",
"6	c #EDEDED",
".    ",
"+@#  ",
"$$%# ",
"&&&* ",
"===-.",
";;;;.",
">>>>.",
",,,,.",
"''''.",
")))).",
"!!!!.",
"~~~~.",
"{{{{.",
"]]]].",
"^^^^.",
"////.",
"((((.",
"____.",
"::::.",
"<<<<.",
"[[[[.",
"^^^^.",
"}}}}.",
")))).",
"||||.",
"====.",
"1111.",
"2222.",
"3333.",
"3333.",
"4444.",
"5555.",
"6666.",
"6666."};
