/* XPM */
static char * top_left_active_xpm[] = {
"5 34 29 1",
" 	c None",
".	c #8E8E8E",
"+	c #909090",
"@	c #BDBDBD",
"#	c #F2F2F2",
"$	c #EEEEEE",
"%	c #FBFBFB",
"&	c #F8F8F8",
"*	c #F7F7F7",
"=	c #F6F6F6",
"-	c #FFFFFF",
";	c #FEFEFE",
">	c #FDFDFD",
",	c #F5F5F5",
"'	c #FCFCFC",
")	c #FAFAFA",
"!	c #F4F4F4",
"~	c #F9F9F9",
"{	c #F3F3F3",
"]	c #F1F1F1",
"^	c #F0F0F0",
"/	c #EFEFEF",
"(	c #EDEDED",
"_	c #ECECEC",
":	c #EBEBEB",
"<	c #EAEAEA",
"[	c #E9E9E9",
"}	c #E8E8E8",
"|	c #E7E7E7",
"    .",
"  +@#",
" +$%&",
" @%**",
".#*==",
".-===",
".;===",
".>,,,",
".',,,",
".%,,,",
".)!!!",
".~!!!",
".&!!!",
".*{{{",
".={{{",
".,{{{",
".!###",
".{###",
".####",
".]]]]",
".^]]]",
"./]]]",
".$^^^",
".(^^^",
"._^^^",
".:///",
".<///",
".[///",
".}$$$",
".|$$$",
".$$$$",
".((((",
".((((",
".(((("};
