/* XPM */
static char * close_pressed_xpm[] = {
"32 34 39 1",
" 	c None",
".	c #8E8E8E",
"+	c #FFFFFF",
"@	c #FEFEFE",
"#	c #F7F7F7",
"$	c #F5F5F5",
"%	c #C2C2C2",
"&	c #AAAAAA",
"*	c #A1A1A1",
"=	c #C7C7C7",
"-	c #ABABAB",
";	c #BEBEBE",
">	c #C8C8C8",
",	c #F6F6F6",
"'	c #C9C9C9",
")	c #D5D5D5",
"!	c #D6D6D6",
"~	c #D7D7D7",
"{	c #D8D8D8",
"]	c #F4F4F4",
"^	c #D9D9D9",
"/	c #F3F3F3",
"(	c #DADADA",
"_	c #44494B",
":	c #DBDBDB",
"<	c #F2F2F2",
"[	c #F1F1F1",
"}	c #DCDCDC",
"|	c #DDDDDD",
"1	c #F0F0F0",
"2	c #DEDEDE",
"3	c #EFEFEF",
"4	c #DFDFDF",
"5	c #EEEEEE",
"6	c #E0E0E0",
"7	c #CBCBCB",
"8	c #B1B1B1",
"9	c #EDEDED",
"0	c #FDFDFD",
"................................",
"++++++++++++++++++@@@+++++++++++",
"#$%&************************&=$#",
"#%-;>>>>>>>>>>>>>>>>>>>>>>>>;-=#",
",&')!!!!!!!!!!!!!!!!!!!!!!!!)>&,",
",*!~~~~~~~~~~~~~~~~~~~~~~~~~~)*,",
",*{{{{{{{{{{{{{{{{{{{{{{{{{{{{*,",
"$*{{{{{{{{{{{{{{{{{{{{{{{{{{{{*$",
"$*{{{{{{{{{{{{{{{{{{{{{{{{{{{{*$",
"$*{{{{{{{{{{{{{{{{{{{{{{{{{{{{*$",
"]*^^^^^^^^^^^^^^^^^^^^^^^^^^^^*]",
"]*^^^^^^^^^^^^^^^^^^^^^^^^^^^^*]",
"]*^^^^^^^^^^^^^^^^^^^^^^^^^^^^*]",
"/*((((((((((__(((((__(((((((((*/",
"/*((((((((((___(((___(((((((((*/",
"/*:::::::::::___:___::::::::::*/",
"<*::::::::::::_____:::::::::::*<",
"<*:::::::::::::___::::::::::::*<",
"<*::::::::::::_____:::::::::::*<",
"[*}}}}}}}}}}}___}___}}}}}}}}}}*[",
"[*||||||||||___|||___|||||||||*[",
"[*||||||||||__|||||__|||||||||*[",
"1*||||||||||||||||||||||||||||*1",
"1*||||||||||||||||||||||||||||*1",
"1*2222222222222222222222222222*1",
"3*2222222222222222222222222222*3",
"3*2222222222222222222222222222*3",
"3*4444444444444444444444444444*3",
"5*4444444444444444444444444444*5",
"5-}66666666666666666666666666{-5",
"578{666666666666666666666666{875",
"9,7-************************-7,9",
"99,0+######################+0,99",
"99999999999999999999999999999999"};
