/* XPM */
static char * close_pressed_xpm[] = {
"32 35 23 1",
" 	c None",
".	c #8E8E8E",
"+	c #FFFFFF",
"@	c #F7F7F7",
"#	c #F6F6F6",
"$	c #DFADAD",
"%	c #B21A1A",
"&	c #AA0000",
"*	c #B21B1B",
"=	c #E0AFAF",
"-	c #F5F5F5",
";	c #F4F4F4",
">	c #F3F3F3",
",	c #F2F2F2",
"'	c #F1F1F1",
")	c #F0F0F0",
"!	c #EFEFEF",
"~	c #B11A1A",
"{	c #B11B1B",
"]	c #DBAAAA",
"^	c #DBABAB",
"/	c #EEEEEE",
"(	c #EDEDED",
"................................",
"++++++++++++++++++++++++++++++++",
"@@@@@@@@@@@@@@@@@@@@@@@@@@@@@@@@",
"@@@@@@@@@@@@@@@@@@@@@@@@@@@@@@@@",
"################################",
"################################",
"#####$%&&&&&&&&&&&&&&&&&&*=#####",
"-----%&&&&&&&&&&&&&&&&&&&&*-----",
"-----&&&&&&&&&&&&&&&&&&&&&&-----",
"-----&&&&&&&&&&&&&&&&&&&&&&-----",
";;;;;&&&&&&&&&&&&&&&&&&&&&&;;;;;",
";;;;;&&&&&&&&&&&&&&&&&&&&&&;;;;;",
";;;;;&&&&&&&&&&&&&&&&&&&&&&;;;;;",
">>>>>&&&&&&&++&&&&++&&&&&&&>>>>>",
">>>>>&&&&&&&+++&&+++&&&&&&&>>>>>",
">>>>>&&&&&&&&++++++&&&&&&&&>>>>>",
",,,,,&&&&&&&&&++++&&&&&&&&&,,,,,",
",,,,,&&&&&&&&&++++&&&&&&&&&,,,,,",
",,,,,&&&&&&&&++++++&&&&&&&&,,,,,",
"'''''&&&&&&&+++&&+++&&&&&&&'''''",
"'''''&&&&&&&++&&&&++&&&&&&&'''''",
"'''''&&&&&&&&&&&&&&&&&&&&&&'''''",
")))))&&&&&&&&&&&&&&&&&&&&&&)))))",
")))))&&&&&&&&&&&&&&&&&&&&&&)))))",
")))))&&&&&&&&&&&&&&&&&&&&&&)))))",
"!!!!!&&&&&&&&&&&&&&&&&&&&&&!!!!!",
"!!!!!~&&&&&&&&&&&&&&&&&&&&{!!!!!",
"!!!!!]~&&&&&&&&&&&&&&&&&&{^!!!!!",
"////////////////////////////////",
"////////////////////////////////",
"////////////////////////////////",
"((((((((((((((((((((((((((((((((",
"((((((((((((((((((((((((((((((((",
"((((((((((((((((((((((((((((((((",
"................................"};
