/* XPM */
static char * close_inactive_xpm[] = {
"32 34 17 1",
" 	c None",
".	c #8E8E8E",
"+	c #FFFFFF",
"@	c #FEFEFE",
"#	c #EDEDED",
"$	c #EDEDED",
"%	c #EDEDED",
"&	c #EDEDED",
"*	c #EDEDED",
"=	c #44494B",
"-	c #EDEDED",
";	c #EDEDED",
">	c #EDEDED",
",	c #EDEDED",
"'	c #EDEDED",
")	c #EDEDED",
"!	c #EDEDED",
"................................",
"++++++++++++++++++@@@+++++++++++",
"################################",
"#####################$##########",
"$$$$$$$$$$$$$$$$$$$$$%$$$$$$$$$$",
"$$$$$$$$$$$$$$$$$$$$$%$$$$$$$$$$",
"$$$$$$$$$$$$$$$$$$$$$%$$$$$$$$$$",
"%%%%%%%%%%%%%%%%%%%%%&%%%%%%%%%%",
"%%%%%%%%%%%%%%%%%%%%%&%%%%%%%%%%",
"%%%%%%%%%%%%%%%%%%%%%&%%%%%%%%%%",
"&&&&&&&&&&&&&&&&&&&&&*&&&&&&&&&&",
"&&&&&&&&&&&&&&&&&&&&&*&&&&&&&&&&",
"&&&&&&&&&&&&&&&&&&&&&*&&&&&&&&&&",
"************==*****==-**********",
"************===--*===-**********",
"************-===*===*-**********",
"-------------;=====>-,----------",
"-------------,-===->-,,---------",
"-------------,=====,-,,---------",
",,,,,,,,,,,,>===>===,>>,,,,,,,,,",
",,,,,,,,,,,,===,>'===>>>,,,,,,,,",
",,,,,,,,,,,,==,,,,,==>>>,,,,,,,,",
">>>>>>>>>>>>>>>>>>>>>>>>>>>>>>>>",
">>>>>>>>>>>>>>>>>>>>>>>>>>>>>>>>",
">>>>>>>>>>>>>>>>>>>>>>>>>>>>>>>>",
"''''''''''''''''''''''''''''''''",
"''''''''''''''''''''''''''''''''",
"''''''''''''''''''''''''''''''''",
"))))))))))))))))))))))))))))))))",
"))))))))))))))))))))))))))))))))",
"))))))))))))))))))))))))))))))))",
"!!!!!!!!!!!!!!!!!!!!!!!!!!!!!!!!",
"!!!!!!!!!!!!!!!!!!!!!!!!!!!!!!!!",
"!!!!!!!!!!!!!!!!!!!!!!!!!!!!!!!!"};
