/* XPM */
static char * close_inactive_xpm[] = {
"32 35 6 1",
" 	c None",
".	c #A6A6A6",
"+	c #FFFFFF",
"@	c #FEFEFE",
"#	c #EDEDED",
"$	c #8D9091",
"................................",
"++++++++++++++++++@@@+++++++++++",
"################################",
"################################",
"################################",
"################################",
"################################",
"################################",
"################################",
"################################",
"################################",
"################################",
"################################",
"############$$####$$############",
"############$$$##$$$############",
"#############$$$$$$#############",
"##############$$$$##############",
"##############$$$$##############",
"#############$$$$$$#############",
"############$$$##$$$############",
"############$$####$$############",
"################################",
"################################",
"################################",
"################################",
"################################",
"################################",
"################################",
"################################",
"################################",
"################################",
"################################",
"################################",
"################################",
"................................"};
