/* XPM */
static char * hide_prelight_xpm[] = {
"32 34 42 1",
" 	c None",
".	c #8E8E8E",
"+	c #FFFFFF",
"@	c #FEFEFE",
"#	c #F7F7F7",
"$	c #F5F5F5",
"%	c #C2C2C2",
"&	c #AAAAAA",
"*	c #A1A1A1",
"=	c #C7C7C7",
"-	c #B7B7B7",
";	c #F9F9F9",
">	c #F6F6F6",
",	c #F8F8F8",
"'	c #F1F1F1",
")	c #F4F4F4",
"!	c #F3F3F3",
"~	c #F2F2F2",
"{	c #F0F0F0",
"]	c #EFEFEF",
"^	c #EDEDED",
"/	c #ECECEC",
"(	c #EBEBEB",
"_	c #EAEAEA",
":	c #E9E9E9",
"<	c #E8E8E8",
"[	c #44494B",
"}	c #E7E7E7",
"|	c #E6E6E6",
"1	c #E5E5E5",
"2	c #E4E4E4",
"3	c #E2E2E2",
"4	c #EEEEEE",
"5	c #ABABAB",
"6	c #DDDDDD",
"7	c #E1E1E1",
"8	c #D9D9D9",
"9	c #CBCBCB",
"0	c #B1B1B1",
"a	c #D8D8D8",
"b	c #E0E0E0",
"c	c #FDFDFD",
"................................",
"++++++++++++++++++@@@+++++++++++",
"#$%&************************&=$#",
"#%-;++++++++++++++++++++++++;-=#",
">&#,,,,,,,,,,,,,,,,,,,,,,,,,,'&>",
">*###########################,*>",
">*$$$$$$$$$$$$$$$$$$$$$$$$$$$$*>",
"$*))))))))))))))))))))))))))))*$",
"$*!!!!!!!!!!!!!!!!!!!!!!!!!!!!*$",
"$*~~~~~~~~~~~~~~~~~~~~~~~~~~~~*$",
")*''''''''''''''''''''''''''''*)",
")*{{{{{{{{{{{{{{{{{{{{{{{{{{{{*)",
")*]]]]]]]]]]]]]]]]]]]]]]]]]]]]*)",
"!*^^^^^^^^^^^^^^^^^^^^^^^^^^^^*!",
"!*^^^^^^^^^^^^^^^^^^^^^^^^^^^^*!",
"!*////////////////////////////*!",
"~*((((((((((((((((((((((((((((*~",
"~*____________________________*~",
"~*____________________________*~",
"'*::::::::::::::::::::::::::::*'",
"'*<<<<<<<<<<<[[[[[[[<<<<<<<<<<*'",
"'*}}}}}}}}}}}[[[[[[[}}}}}}}}}}*'",
"{*||||||||||||||||||||||||||||*{",
"{*||||||||||||||||||||||||||||*{",
"{*1111111111111111111111111111*{",
"]*2222222222222222222222222222*]",
"]*2222222222222222222222222222*]",
"]*3333333333333333333333333333*]",
"4*3333333333333333333333333333*4",
"45677777777777777777777777777854",
"490abbbbbbbbbbbbbbbbbbbbbbbba094",
"^>95************************59>^",
"^^>c+######################+c>^^",
"^^^^^^^^^^^^^^^^^^^^^^^^^^^^^^^^"};
