/* XPM */
static char * shade_toggled_pressed_xpm[] = {
"32 35 24 1",
" 	c None",
".	c #8E8E8E",
"+	c #FFFFFF",
"@	c #F7F7F7",
"#	c #F6F6F6",
"$	c #BED3E9",
"%	c #4D8DD0",
"&	c #3A81CC",
"*	c #4E8DD0",
"=	c #C0D4E9",
"-	c #F5F5F5",
";	c #4F8ED0",
">	c #F4F4F4",
",	c #F3F3F3",
"'	c #F2F2F2",
")	c #F1F1F1",
"!	c #F0F0F0",
"~	c #EFEFEF",
"{	c #4D8DCF",
"]	c #4E8DCF",
"^	c #BBCFE4",
"/	c #BBCFE5",
"(	c #EEEEEE",
"_	c #EDEDED",
"................................",
"++++++++++++++++++++++++++++++++",
"@@@@@@@@@@@@@@@@@@@@@@@@@@@@@@@@",
"@@@@@@@@@@@@@@@@@@@@@@@@@@@@@@@@",
"################################",
"################################",
"#####$%&&&&&&&&&&&&&&&&&&*=#####",
"-----*&&&&&&&&&&&&&&&&&&&&;-----",
"-----&&&&&&&&&&&&&&&&&&&&&&-----",
"-----&&&&&&&&&&&&&&&&&&&&&&-----",
">>>>>&&&&&&&&&&&&&&&&&&&&&&>>>>>",
">>>>>&&&&&&&&&&&&&&&&&&&&&&>>>>>",
">>>>>&&&&&&&&&&&&&&&&&&&&&&>>>>>",
",,,,,&&&&&&&&&&&&&&&&&&&&&&,,,,,",
",,,,,&&&&&++&&&&&&&&++&&&&&,,,,,",
",,,,,&&&&&+++&&&&&&+++&&&&&,,,,,",
"'''''&&&&&&+++&&&&+++&&&&&&'''''",
"'''''&&&&&&&+++&&+++&&&&&&&'''''",
"'''''&&&&&&&&++++++&&&&&&&&'''''",
")))))&&&&&&&&&++++&&&&&&&&&)))))",
")))))&&&&&&&&&&++&&&&&&&&&&)))))",
")))))&&&&&&&&&&&&&&&&&&&&&&)))))",
"!!!!!&&&&&&&&&&&&&&&&&&&&&&!!!!!",
"!!!!!&&&&&&&&&&&&&&&&&&&&&&!!!!!",
"!!!!!&&&&&&&&&&&&&&&&&&&&&&!!!!!",
"~~~~~&&&&&&&&&&&&&&&&&&&&&&~~~~~",
"~~~~~{&&&&&&&&&&&&&&&&&&&&]~~~~~",
"~~~~~^{&&&&&&&&&&&&&&&&&&]/~~~~~",
"((((((((((((((((((((((((((((((((",
"((((((((((((((((((((((((((((((((",
"((((((((((((((((((((((((((((((((",
"________________________________",
"________________________________",
"________________________________",
"................................"};
