/* XPM */
static char * shade_prelight_xpm[] = {
"32 35 25 1",
" 	c None",
".	c #8E8E8E",
"+	c #FFFFFF",
"@	c #F7F7F7",
"#	c #F6F6F6",
"$	c #DCDCDC",
"%	c #A8A8A8",
"&	c #9F9F9F",
"*	c #F5F5F5",
"=	c #9E9E9E",
"-	c #F4F4F4",
";	c #9D9D9D",
">	c #F3F3F3",
",	c #F2F2F2",
"'	c #9C9C9C",
")	c #9B9B9B",
"!	c #F1F1F1",
"~	c #F0F0F0",
"{	c #EFEFEF",
"]	c #9A9A9A",
"^	c #A4A4A4",
"/	c #D6D6D6",
"(	c #D7D7D7",
"_	c #EEEEEE",
":	c #EDEDED",
"................................",
"++++++++++++++++++++++++++++++++",
"@@@@@@@@@@@@@@@@@@@@@@@@@@@@@@@@",
"@@@@@@@@@@@@@@@@@@@@@@@@@@@@@@@@",
"################################",
"################################",
"#####$%&&&&&&&&&&&&&&&&&&%$#####",
"*****%====================%*****",
"*****======================*****",
"*****======================*****",
"-----;;;;;;;;;;;;;;;;;;;;;;-----",
"-----;;;;;;;;;;;;;;;;;;;;;;-----",
"-----;;;;;;;;;;;;;;;;;;;;;;-----",
">>>>>;;;;;;;;;;++;;;;;;;;;;>>>>>",
">>>>>;;;;;;;;;++++;;;;;;;;;>>>>>",
">>>>>;;;;;;;;++++++;;;;;;;;>>>>>",
",,,,,'''''''+++''+++''''''',,,,,",
",,,,,''''''+++''''+++')'''',,,,,",
",,,,,'''''+++''''''+++)'''',,,,,",
"!!!!!)))))++))))))))++)))))!!!!!",
"!!!!!))))))))))))))))))))))!!!!!",
"!!!!!))))))))))))))))))))))!!!!!",
"~~~~~))))))))))))))))))))))~~~~~",
"~~~~~))))))))))))))))))))))~~~~~",
"~~~~~))))))))))))))))))))))~~~~~",
"{{{{{]]]]]]]]]]]]]]]]]]]]]]{{{{{",
"{{{{{^]]]]]]]]]]]]]]]]]]]]^{{{{{",
"{{{{{/^]]]]]]]]]]]]]]]]]]^({{{{{",
"________________________________",
"________________________________",
"________________________________",
"::::::::::::::::::::::::::::::::",
"::::::::::::::::::::::::::::::::",
"::::::::::::::::::::::::::::::::",
"................................"};
