/* XPM */
static char * stick_inactive_xpm[] = {
"32 35 32 1",
" 	c None",
".	c #A6A6A6",
"+	c #FFFFFF",
"@	c #EDEDED",
"#	c #E4E4E5",
"$	c #BBBDBD",
"%	c #9EA1A2",
"&	c #919494",
"*	c #9FA1A2",
"=	c #E5E5E5",
"-	c #CDCECF",
";	c #949798",
">	c #B7B7B9",
",	c #D8D8D9",
"'	c #E8E8E8",
")	c #D7D8D8",
"!	c #B6B8B8",
"~	c #989A9B",
"{	c #DBDCDC",
"]	c #979A9C",
"^	c #B6B7B8",
"/	c #9EA0A1",
"(	c #D7D9D9",
"_	c #919495",
":	c #929596",
"<	c #9FA2A3",
"[	c #BCBDBE",
"}	c #B5B7B8",
"|	c #DBDBDB",
"1	c #959898",
"2	c #CECFCF",
"3	c #D7D7D7",
"................................",
"++++++++++++++++++++++++++++++++",
"@@@@@@@@@@@@@@@@@@@@@@@@@@@@@@@@",
"@@@@@@@@@@@@@@@@@@@@@@@@@@@@@@@@",
"@@@@@@@@@@@@@@@@@@@@@@@@@@@@@@@@",
"@@@@@@@@@@@@@@@@@@@@@@@@@@@@@@@@",
"@@@@@@@@@@@@@@@@@@@@@@@@@@@@@@@@",
"@@@@@@@@@@@@@@@@@@@@@@@@@@@@@@@@",
"@@@@@@@@@@@@@@@@@@@@@@@@@@@@@@@@",
"@@@@@@@@@@@@@@@@@@@@@@@@@@@@@@@@",
"@@@@@@@@@@@@#$%&&*$=@@@@@@@@@@@@",
"@@@@@@@@@@@-;>,'')!;-@@@@@@@@@@@",
"@@@@@@@@@@-~{@@@@@@{]-@@@@@@@@@@",
"@@@@@@@@@#;{@@@@@@@@{;=@@@@@@@@@",
"@@@@@@@@@$>@@@@@@@@@@^$@@@@@@@@@",
"@@@@@@@@@/,@@@@@@@@@@(*@@@@@@@@@",
"@@@@@@@@@_'@@@@@@@@@@'_@@@@@@@@@",
"@@@@@@@@@_'@@@@@@@@@@':@@@@@@@@@",
"@@@@@@@@@%,@@@@@@@@@@(<@@@@@@@@@",
"@@@@@@@@@[!@@@@@@@@@@}[@@@@@@@@@",
"@@@@@@@@@=;{@@@@@@@@|1=@@@@@@@@@",
"@@@@@@@@@@-]{@@@@@@|]2@@@@@@@@@@",
"@@@@@@@@@@@-;^(''3};2@@@@@@@@@@@",
"@@@@@@@@@@@@=$<__<$=@@@@@@@@@@@@",
"@@@@@@@@@@@@@@@@@@@@@@@@@@@@@@@@",
"@@@@@@@@@@@@@@@@@@@@@@@@@@@@@@@@",
"@@@@@@@@@@@@@@@@@@@@@@@@@@@@@@@@",
"@@@@@@@@@@@@@@@@@@@@@@@@@@@@@@@@",
"@@@@@@@@@@@@@@@@@@@@@@@@@@@@@@@@",
"@@@@@@@@@@@@@@@@@@@@@@@@@@@@@@@@",
"@@@@@@@@@@@@@@@@@@@@@@@@@@@@@@@@",
"@@@@@@@@@@@@@@@@@@@@@@@@@@@@@@@@",
"@@@@@@@@@@@@@@@@@@@@@@@@@@@@@@@@",
"@@@@@@@@@@@@@@@@@@@@@@@@@@@@@@@@",
"................................"};
