/* XPM */
static char * stick_pressed_xpm[] = {
"32 35 58 1",
" 	c None",
".	c #8E8E8E",
"+	c #FFFFFF",
"@	c #F7F7F7",
"#	c #F6F6F6",
"$	c #BED3E9",
"%	c #4D8DD0",
"&	c #3A81CC",
"*	c #4E8DD0",
"=	c #C0D4E9",
"-	c #F5F5F5",
";	c #4F8ED0",
">	c #F4F4F4",
",	c #4A8BD0",
"'	c #9FC1E6",
")	c #D9E7F5",
"!	c #F6F9FC",
"~	c #D9E6F5",
"{	c #7AAADC",
"]	c #EEF4FA",
"^	c #A9C8E8",
"/	c #639BD6",
"(	c #4286CE",
"_	c #649CD7",
":	c #AAC8E9",
"<	c #79A9DC",
"[	c #E7F0F9",
"}	c #5D97D5",
"|	c #5E98D5",
"1	c #E8F0F9",
"2	c #F3F3F3",
"3	c #AAC9E9",
"4	c #9DC0E5",
"5	c #DAE7F5",
"6	c #659CD7",
"7	c #F2F2F2",
"8	c #F5F9FC",
"9	c #4386CE",
"0	c #F4F8FC",
"a	c #4487CE",
"b	c #D8E6F5",
"c	c #F1F1F1",
"d	c #9EC1E6",
"e	c #ABC9E9",
"f	c #9CC0E5",
"g	c #5F98D5",
"h	c #498AD0",
"i	c #77A8DC",
"j	c #F0F0F0",
"k	c #669DD7",
"l	c #78A9DC",
"m	c #EFEFEF",
"n	c #4D8DCF",
"o	c #4E8DCF",
"p	c #BBCFE4",
"q	c #BBCFE5",
"r	c #EEEEEE",
"s	c #EDEDED",
"................................",
"++++++++++++++++++++++++++++++++",
"@@@@@@@@@@@@@@@@@@@@@@@@@@@@@@@@",
"@@@@@@@@@@@@@@@@@@@@@@@@@@@@@@@@",
"################################",
"################################",
"#####$%&&&&&&&&&&&&&&&&&&*=#####",
"-----*&&&&&&&&&&&&&&&&&&&&;-----",
"-----&&&&&&&&&&&&&&&&&&&&&&-----",
"-----&&&&&&&&&&&&&&&&&&&&&&-----",
">>>>>&&&&&&&,')!!~',&&&&&&&>>>>>",
">>>>>&&&&&&{]^/((_:]<&&&&&&>>>>>",
">>>>>&&&&&{[}&&&&&&|1<&&&&&>>>>>",
"22222&&&&,]}&&&&&&&&|],&&&&22222",
"22222&&&&'^&&&&&&&&&&34&&&&22222",
"22222&&&&5/&&&&&&&&&&6~&&&&22222",
"77777&&&&89&&&&&&&&&&90&&&&77777",
"77777&&&&09&&&&&&&&&&a0&&&&77777",
"77777&&&&)/&&&&&&&&&&6b&&&&77777",
"ccccc&&&&d:&&&&&&&&&&ef&&&&ccccc",
"ccccc&&&&,]|&&&&&&&&g]h&&&&ccccc",
"ccccc&&&&&<1|&&&&&&g1i&&&&&ccccc",
"jjjjj&&&&&&<]3699ke]l&&&&&&jjjjj",
"jjjjj&&&&&&&h4b80b4h&&&&&&&jjjjj",
"jjjjj&&&&&&&&&&&&&&&&&&&&&&jjjjj",
"mmmmm&&&&&&&&&&&&&&&&&&&&&&mmmmm",
"mmmmmn&&&&&&&&&&&&&&&&&&&&ommmmm",
"mmmmmpn&&&&&&&&&&&&&&&&&&oqmmmmm",
"rrrrrrrrrrrrrrrrrrrrrrrrrrrrrrrr",
"rrrrrrrrrrrrrrrrrrrrrrrrrrrrrrrr",
"rrrrrrrrrrrrrrrrrrrrrrrrrrrrrrrr",
"ssssssssssssssssssssssssssssssss",
"ssssssssssssssssssssssssssssssss",
"ssssssssssssssssssssssssssssssss",
"................................"};
