/* XPM */
static char * stick_toggled_inactive_xpm[] = {
"32 35 72 1",
" 	c None",
".	c #A6A6A6",
"+	c #FFFFFF",
"@	c #EDEDED",
"#	c #E7E7E7",
"$	c #C0C1C2",
"%	c #A3A7A7",
"&	c #96999A",
"*	c #97999A",
"=	c #A6A8A8",
"-	c #C2C3C3",
";	c #E8E8E8",
">	c #D0D0D1",
",	c #959899",
"'	c #B2B5B5",
")	c #D3D4D5",
"!	c #E2E3E3",
"~	c #E2E2E2",
"{	c #D1D3D3",
"]	c #AFB1B2",
"^	c #D4D5D5",
"/	c #CECFCF",
"(	c #989A9B",
"_	c #D9D9DA",
":	c #D6D6D7",
"<	c #E4E4E5",
"[	c #949798",
"}	c #DADBDB",
"|	c #D7D8D8",
"1	c #BABCBC",
"2	c #B7B8B8",
"3	c #EBEBEB",
"4	c #BBBDBD",
"5	c #C1C3C3",
"6	c #9D9FA1",
"7	c #DADADA",
"8	c #BBBCBD",
"9	c #8D9091",
"0	c #D6D7D7",
"a	c #A3A5A6",
"b	c #909293",
"c	c #EAEAEA",
"d	c #E7E7E8",
"e	c #ECECEC",
"f	c #8F9293",
"g	c #979A9C",
"h	c #989A9C",
"i	c #9B9D9E",
"j	c #DDDEDE",
"k	c #BCBDBE",
"l	c #D8D9D9",
"m	c #A1A4A4",
"n	c #B7B7B9",
"o	c #B8B9B9",
"p	c #BEBFC0",
"q	c #E1E2E2",
"r	c #E0E0E0",
"s	c #DCDCDC",
"t	c #E5E5E5",
"u	c #C6C8C8",
"v	c #9A9E9F",
"w	c #DDDDDD",
"x	c #999C9C",
"y	c #CDCECE",
"z	c #DEDEDE",
"A	c #BABBBC",
"B	c #959898",
"C	c #CCCDCD",
"D	c #E1E1E1",
"E	c #B5B7B8",
"F	c #9A9D9E",
"G	c #B7B9BB",
"................................",
"++++++++++++++++++++++++++++++++",
"@@@@@@@@@@@@@@@@@@@@@@@@@@@@@@@@",
"@@@@@@@@@@@@@@@@@@@@@@@@@@@@@@@@",
"@@@@@@@@@@@@@@@@@@@@@@@@@@@@@@@@",
"@@@@@@@@@@@@@@@@@@@@@@@@@@@@@@@@",
"@@@@@@@@@@@@@@@@@@@@@@@@@@@@@@@@",
"@@@@@@@@@@@@@@@@@@@@@@@@@@@@@@@@",
"@@@@@@@@@@@@@@@@@@@@@@@@@@@@@@@@",
"@@@@@@@@@@@@@@@@@@@@@@@@@@@@@@@@",
"@@@@@@@@@@@@#$%&*=-;@@@@@@@@@@@@",
"@@@@@@@@@@@>,')!~{]*^@@@@@@@@@@@",
"@@@@@@@@@@/(_@@@@@@:&^@@@@@@@@@@",
"@@@@@@@@@<[}@@@@@@@@|*#@@@@@@@@@",
"@@@@@@@@@12@@34((43@@'5@@@@@@@@@",
"@@@@@@@@@67@@899994@@0a@@@@@@@@@",
"@@@@@@@@@bc@@(9999(@@d,@@@@@@@@@",
"@@@@@@@@ef3@@g9999h@@;[@@@@@@@@@",
"@@@@@@@@@ij@@49999k@@lm@@@@@@@@@",
"@@@@@@@@@nk@@34((k3@@op@@@@@@@@@",
"@@@@@@@@@q[r@@@@@@@@s,t@@@@@@@@@",
"@@@@@@@@@@uvr@@@@@@wxy@@@@@@@@@@",
"@@@@@@@@@@@u[kz@esABC@@@@@@@@@@@",
"@@@@@@@@@@@@DExffFG!@@@@@@@@@@@@",
"@@@@@@@@@@@@@@@33@@@@@@@@@@@@@@@",
"@@@@@@@@@@@@@@@@@@@@@@@@@@@@@@@@",
"@@@@@@@@@@@@@@@@@@@@@@@@@@@@@@@@",
"@@@@@@@@@@@@@@@@@@@@@@@@@@@@@@@@",
"@@@@@@@@@@@@@@@@@@@@@@@@@@@@@@@@",
"@@@@@@@@@@@@@@@@@@@@@@@@@@@@@@@@",
"@@@@@@@@@@@@@@@@@@@@@@@@@@@@@@@@",
"@@@@@@@@@@@@@@@@@@@@@@@@@@@@@@@@",
"@@@@@@@@@@@@@@@@@@@@@@@@@@@@@@@@",
"@@@@@@@@@@@@@@@@@@@@@@@@@@@@@@@@",
"................................"};
