/* XPM */
static char * stick_toggled_pressed_xpm[] = {
"32 35 99 2",
"  	c None",
". 	c #8E8E8E",
"+ 	c #FFFFFF",
"@ 	c #F7F7F7",
"# 	c #F6F6F6",
"$ 	c #BED3E9",
"% 	c #4D8DD0",
"& 	c #3A81CC",
"* 	c #4E8DD0",
"= 	c #C0D4E9",
"- 	c #F5F5F5",
"; 	c #4F8ED0",
"> 	c #F4F4F4",
", 	c #4688CF",
"' 	c #95BBE3",
") 	c #CFE0F2",
"! 	c #EAF2F9",
"~ 	c #EAF1F9",
"{ 	c #CCDEF1",
"] 	c #91B8E2",
"^ 	c #4386CE",
"/ 	c #75A7DB",
"( 	c #EDF3FA",
"_ 	c #B1CDEB",
": 	c #6CA1D9",
"< 	c #4E8DD1",
"[ 	c #4E8ED1",
"} 	c #70A4DA",
"| 	c #B7D1EC",
"1 	c #6BA0D8",
"2 	c #77A8DC",
"3 	c #E9F1F9",
"4 	c #629AD6",
"5 	c #699FD8",
"6 	c #EBF2FA",
"7 	c #F3F3F3",
"8 	c #4A8BD0",
"9 	c #EEF4FA",
"0 	c #5F99D5",
"a 	c #669DD7",
"b 	c #4487CE",
"c 	c #A1C3E6",
"d 	c #A8C7E8",
"e 	c #3D83CD",
"f 	c #9FC2E6",
"g 	c #E7F0F9",
"h 	c #9FC1E6",
"i 	c #93BAE3",
"j 	c #DDE9F6",
"k 	c #6099D6",
"l 	c #A0C2E6",
"m 	c #689ED8",
"n 	c #D0E1F3",
"o 	c #F2F2F2",
"p 	c #F8FBFD",
"q 	c #3E83CD",
"r 	c #4588CF",
"s 	c #3B81CC",
"t 	c #F9FBFD",
"u 	c #E8F0F9",
"v 	c #E7EFF8",
"w 	c #EFF5FB",
"x 	c #E2ECF7",
"y 	c #5A95D4",
"z 	c #9EC1E6",
"A 	c #629BD6",
"B 	c #D5E4F4",
"C 	c #F1F1F1",
"D 	c #A9C8E8",
"E 	c #A7C7E8",
"F 	c #9BBFE5",
"G 	c #5190D2",
"H 	c #5491D2",
"I 	c #5B96D4",
"J 	c #498AD0",
"K 	c #88B2E0",
"L 	c #E0EBF7",
"M 	c #5995D4",
"N 	c #E5EEF8",
"O 	c #7BABDD",
"P 	c #F0F0F0",
"Q 	c #88B3E0",
"R 	c #9CC0E5",
"S 	c #5894D3",
"T 	c #A2C3E7",
"U 	c #7DACDD",
"V 	c #5290D2",
"W 	c #ABC9E9",
"X 	c #FAFCFD",
"Y 	c #E3EDF7",
"Z 	c #A6C6E8",
"` 	c #3D82CC",
" .	c #EFEFEF",
"..	c #4D8DCF",
"+.	c #4E8DCF",
"@.	c #BBCFE4",
"#.	c #BBCFE5",
"$.	c #EEEEEE",
"%.	c #EDEDED",
". . . . . . . . . . . . . . . . . . . . . . . . . . . . . . . . ",
"+ + + + + + + + + + + + + + + + + + + + + + + + + + + + + + + + ",
"@ @ @ @ @ @ @ @ @ @ @ @ @ @ @ @ @ @ @ @ @ @ @ @ @ @ @ @ @ @ @ @ ",
"@ @ @ @ @ @ @ @ @ @ @ @ @ @ @ @ @ @ @ @ @ @ @ @ @ @ @ @ @ @ @ @ ",
"# # # # # # # # # # # # # # # # # # # # # # # # # # # # # # # # ",
"# # # # # # # # # # # # # # # # # # # # # # # # # # # # # # # # ",
"# # # # # $ % & & & & & & & & & & & & & & & & & & * = # # # # # ",
"- - - - - * & & & & & & & & & & & & & & & & & & & & ; - - - - - ",
"- - - - - & & & & & & & & & & & & & & & & & & & & & & - - - - - ",
"- - - - - & & & & & & & & & & & & & & & & & & & & & & - - - - - ",
"> > > > > & & & & & & & , ' ) ! ~ { ] ^ & & & & & & & > > > > > ",
"> > > > > & & & & & & / ( _ : < [ } | ~ 1 & & & & & & > > > > > ",
"> > > > > & & & & & 2 3 4 & & & & & & 5 6 : & & & & & > > > > > ",
"7 7 7 7 7 & & & & 8 9 0 & & & & & & & & a ~ b & & & & 7 7 7 7 7 ",
"7 7 7 7 7 & & & & c d & & e f g g h e & & _ i & & & & 7 7 7 7 7 ",
"7 7 7 7 7 & & & & j k & & l + + + + h & & m n & & & & 7 7 7 7 7 ",
"o o o o o & & & & p q & & 3 + + + + g & & r ( & & & & o o o o o ",
"o o o o o & & & s t e & & u + + + + v & & ^ w & & & & o o o o o ",
"o o o o o & & & & x y & & f + + + + z & & A B & & & & o o o o o ",
"C C C C C & & & & D z & & e h g g z e & & E F & & & & C C C C C ",
"C C C C C & & & & G 9 H & & & & & & & & I ( J & & & & C C C C C ",
"C C C C C & & & & & K L H & & & & & & M N O & & & & & C C C C C ",
"P P P P P & & & & & & Q 9 R S & s I T 9 U & & & & & & P P P P P ",
"P P P P P & & & & & & & V W N X X Y Z < & & & & & & & P P P P P ",
"P P P P P & & & & & & & & & & e ` & & & & & & & & & & P P P P P ",
" . . . . .& & & & & & & & & & & & & & & & & & & & & &  . . . . .",
" . . . . ...& & & & & & & & & & & & & & & & & & & & +. . . . . .",
" . . . . .@...& & & & & & & & & & & & & & & & & & +.#. . . . . .",
"$.$.$.$.$.$.$.$.$.$.$.$.$.$.$.$.$.$.$.$.$.$.$.$.$.$.$.$.$.$.$.$.",
"$.$.$.$.$.$.$.$.$.$.$.$.$.$.$.$.$.$.$.$.$.$.$.$.$.$.$.$.$.$.$.$.",
"$.$.$.$.$.$.$.$.$.$.$.$.$.$.$.$.$.$.$.$.$.$.$.$.$.$.$.$.$.$.$.$.",
"%.%.%.%.%.%.%.%.%.%.%.%.%.%.%.%.%.%.%.%.%.%.%.%.%.%.%.%.%.%.%.%.",
"%.%.%.%.%.%.%.%.%.%.%.%.%.%.%.%.%.%.%.%.%.%.%.%.%.%.%.%.%.%.%.%.",
"%.%.%.%.%.%.%.%.%.%.%.%.%.%.%.%.%.%.%.%.%.%.%.%.%.%.%.%.%.%.%.%.",
". . . . . . . . . . . . . . . . . . . . . . . . . . . . . . . . "};
