/* XPM */
static char * title_1_inactive_xpm[] = {
"10 34 14 1",
" 	c None",
".	c #8E8E8E",
"+	c #FFFFFF",
"@	c #EDEDED",
"#	c #EDEDED",
"$	c #EDEDED",
"%	c #EDEDED",
"&	c #EDEDED",
"*	c #EDEDED",
"=	c #EDEDED",
"-	c #EDEDED",
";	c #EDEDED",
">	c #EDEDED",
",	c #EDEDED",
"..........",
"++++++++++",
"@@@@@@@@@@",
"@@@@@@@@@@",
"##########",
"##########",
"##########",
"$$$$$$$$$$",
"$$$$$$$$$$",
"$$$$$$$$$$",
"%%%%%%%%%%",
"%%%%%%%%%%",
"%%%%%%%%%%",
"&&&&&&&&&&",
"&&&&&&&&&&",
"&&&&&&&&&&",
"**********",
"**********",
"**********",
"==========",
"==========",
"==========",
"----------",
"----------",
"----------",
";;;;;;;;;;",
";;;;;;;;;;",
";;;;;;;;;;",
">>>>>>>>>>",
">>>>>>>>>>",
">>>>>>>>>>",
",,,,,,,,,,",
",,,,,,,,,,",
",,,,,,,,,,"};
