/* XPM */
static char * top_right_inactive_xpm[] = {
"5 34 29 1",
" 	c None",
".	c #8E8E8E",
"+	c #F2F2F2 s active_color_2",
"@	c #BDBDBD",
"#	c #909090",
"$	c #F8F8F8 s active_color_2",
"%	c #FBFBFB s active_color_2",
"&	c #EEEEEE s active_color_2",
"*	c #F7F7F7 s active_color_2",
"=	c #F6F6F6 s active_color_2",
"-	c #FFFFFF s active_color_2",
";	c #FEFEFE s active_color_2",
">	c #F5F5F5 s active_color_2",
",	c #FDFDFD s active_color_2",
"'	c #FCFCFC s active_color_2",
")	c #F4F4F4 s active_color_2",
"!	c #FAFAFA s active_color_2",
"~	c #F9F9F9 s active_color_2",
"{	c #F3F3F3 s active_color_2",
"]	c #F1F1F1 s active_color_2",
"^	c #F0F0F0 s active_color_2",
"/	c #EFEFEF s active_color_2",
"(	c #EDEDED s active_color_2",
"_	c #ECECEC s active_color_2",
":	c #EBEBEB s active_color_2",
"<	c #EAEAEA s active_color_2",
"[	c #E9E9E9 s active_color_2",
"}	c #E8E8E8 s active_color_2",
"|	c #E7E7E7 s active_color_2",
".    ",
"+@#  ",
"$%&# ",
"**%@ ",
"==*+.",
"===-.",
"===;.",
">>>,.",
">>>'.",
">>>%.",
")))!.",
")))~.",
")))$.",
"{{{*.",
"{{{=.",
"{{{>.",
"+++).",
"+++{.",
"++++.",
"]]]].",
"]]]^.",
"]]]/.",
"^^^&.",
"^^^(.",
"^^^_.",
"///:.",
"///<.",
"///[.",
"&&&}.",
"&&&|.",
"&&&&.",
"((((.",
"((((.",
"((((."};
