/* XPM */
static char * top_left_inactive_xpm[] = {
"5 35 12 1",
" 	c None",
".	c #ABABAB",
"+	c #B8B8B8",
"@	c #CCCCCC",
"#	c #EDEDED",
"$	c #B5B5B5",
"%	c #ECECEC",
"&	c #F1F1F1",
"*	c #CACACA",
"=	c #E6E6E6",
"-	c #A9A9A9",
";	c #A6A6A6",
"    .",
"  +@#",
" $%&#",
" *###",
"$=###",
"-####",
";####",
";####",
";####",
";####",
";####",
";####",
";####",
";####",
";####",
";####",
";####",
";####",
";####",
";####",
";####",
";####",
";####",
";####",
";####",
";####",
";####",
";####",
";####",
";####",
";####",
";####",
";####",
";####",
";;;;;"};
