/* XPM */
static char * top_right_inactive_xpm[] = {
"5 35 12 1",
" 	c None",
".	c #ABABAB",
"+	c #EDEDED",
"@	c #CCCCCC",
"#	c #B8B8B8",
"$	c #F1F1F1",
"%	c #ECECEC",
"&	c #B5B5B5",
"*	c #CACACA",
"=	c #E6E6E6",
"-	c #A9A9A9",
";	c #A6A6A6",
".    ",
"+@#  ",
"+$%& ",
"+++* ",
"+++=&",
"++++-",
"++++;",
"++++;",
"++++;",
"++++;",
"++++;",
"++++;",
"++++;",
"++++;",
"++++;",
"++++;",
"++++;",
"++++;",
"++++;",
"++++;",
"++++;",
"++++;",
"++++;",
"++++;",
"++++;",
"++++;",
"++++;",
"++++;",
"++++;",
"++++;",
"++++;",
"++++;",
"++++;",
"++++;",
";;;;;"};
