/* XPM */
static char * stick_toggled_prelight_xpm[] = {
"32 34 67 1",
" 	c None",
".	c #8E8E8E",
"+	c #FFFFFF",
"@	c #F7F7F7",
"#	c #F6F6F6",
"$	c #DCDCDC",
"%	c #A8A8A8",
"&	c #9F9F9F",
"*	c #F5F5F5",
"=	c #9E9E9E",
"-	c #F4F4F4",
";	c #9D9D9D",
">	c #A3A3A3",
",	c #CACACA",
"'	c #E7E7E7",
")	c #E5E5E5",
"!	c #C8C8C8",
"~	c #A1A1A1",
"{	c #BABABA",
"]	c #D8D8D8",
"^	c #B6B6B6",
"/	c #A6A6A6",
"(	c #A7A7A7",
"_	c #B8B8B8",
":	c #DBDBDB",
"<	c #B5B5B5",
"[	c #BBBBBB",
"}	c #B0B0B0",
"|	c #B4B4B4",
"1	c #F3F3F3",
"2	c #A5A5A5",
"3	c #AFAFAF",
"4	c #B3B3B3",
"5	c #D0D0D0",
"6	c #D3D3D3",
"7	c #CFCFCF",
"8	c #C9C9C9",
"9	c #EEEEEE",
"0	c #F2F2F2",
"a	c #9C9C9C",
"b	c #FBFBFB",
"c	c #FCFCFC",
"d	c #A0A0A0",
"e	c #F0F0F0",
"f	c #ACACAC",
"g	c #CECECE",
"h	c #E9E9E9",
"i	c #F1F1F1",
"j	c #9B9B9B",
"k	c #CDCDCD",
"l	c #D2D2D2",
"m	c #CCCCCC",
"n	c #ABABAB",
"o	c #A2A2A2",
"p	c #C2C2C2",
"q	c #EFEFEF",
"r	c #BCBCBC",
"s	c #C3C3C3",
"t	c #AAAAAA",
"u	c #BDBDBD",
"v	c #D4D4D4",
"w	c #D1D1D1",
"x	c #9A9A9A",
"y	c #A4A4A4",
"z	c #D6D6D6",
"A	c #D7D7D7",
"B	c #EDEDED",
"................................",
"++++++++++++++++++++++++++++++++",
"@@@@@@@@@@@@@@@@@@@@@@@@@@@@@@@@",
"@@@@@@@@@@@@@@@@@@@@@@@@@@@@@@@@",
"################################",
"################################",
"#####$%&&&&&&&&&&&&&&&&&&%$#####",
"*****%====================%*****",
"*****======================*****",
"*****======================*****",
"-----;;;;;;;>,'*-)!~;;;;;;;-----",
"-----;;;;;;{#]^/(_:-<;;;;;;-----",
"-----;;;;;[-};;;;;;|*<;;;;;-----",
"11111;;;;2#3;;;;;;;;4-~;;;;11111",
"11111;;;;56;;=7117=;;]8;;;;11111",
"11111;;;;9};;5++++7;;|';;;;11111",
"00000aaaab=aa-++++1aa~#aaaa00000",
"00000aaaac;aa1++++0aad@aaaa00000",
"00000aaaaefaa7++++gaa}haaaa00000",
"iiiiijjjj6kjjag11kajjlmjjjjiiiii",
"iiiiijjjj(#%jjjjjjjjn*ojjjjiiiii",
"iiiiijjjjjpq%jjjjjjn0rjjjjjiiiii",
"eeeeejjjjjjs#ktjjn7#ujjjjjjeeeee",
"eeeeejjjjjjj(v0ccew2jjjjjjjeeeee",
"eeeeejjjjjjjjjjaajjjjjjjjjjeeeee",
"qqqqqxxxxxxxxxxxxxxxxxxxxxxqqqqq",
"qqqqqyxxxxxxxxxxxxxxxxxxxxyqqqqq",
"qqqqqzyxxxxxxxxxxxxxxxxxxyAqqqqq",
"99999999999999999999999999999999",
"99999999999999999999999999999999",
"99999999999999999999999999999999",
"BBBBBBBBBBBBBBBBBBBBBBBBBBBBBBBB",
"BBBBBBBBBBBBBBBBBBBBBBBBBBBBBBBB",
"BBBBBBBBBBBBBBBBBBBBBBBBBBBBBBBB"};
