/* XPM */
static char * stick_toggled_active_xpm[] = {
"32 34 94 2",
"  	c None",
". 	c #8E8E8E",
"+ 	c #FFFFFF",
"@ 	c #F7F7F7",
"# 	c #F6F6F6",
"$ 	c #F5F5F5",
"% 	c #F4F4F4",
"& 	c #E8E9E9",
"* 	c #A2A4A5",
"= 	c #6E7273",
"- 	c #555A5C",
"; 	c #565B5C",
"> 	c #707577",
", 	c #A6A7A8",
"' 	c #EBEBEC",
") 	c #BFC0C1",
"! 	c #53585A",
"~ 	c #888B8D",
"{ 	c #C6C7C7",
"] 	c #E2E2E3",
"^ 	c #E1E2E2",
"/ 	c #C2C4C4",
"( 	c #828787",
"_ 	c #C7C8C9",
": 	c #BCBEBF",
"< 	c #585B5D",
"[ 	c #D0D1D1",
"} 	c #C9CACB",
"| 	c #55595B",
"1 	c #C6C8C8",
"2 	c #F3F3F3",
"3 	c #E4E4E4",
"4 	c #525758",
"5 	c #D1D2D2",
"6 	c #CACCCC",
"7 	c #E9EAEA",
"8 	c #97999A",
"9 	c #909394",
"0 	c #EFEFEF",
"a 	c #989B9C",
"b 	c #585D5E",
"c 	c #999B9D",
"d 	c #A3A5A6",
"e 	c #626567",
"f 	c #D0D1D2",
"g 	c #979A9B",
"h 	c #44494B",
"i 	c #6D7172",
"j 	c #F2F2F2",
"k 	c #F1F1F1",
"l 	c #494E50",
"m 	c #EEEEEE",
"n 	c #575B5D",
"o 	c #585C5E",
"p 	c #E7E7E7",
"q 	c #484D4F",
"r 	c #575C5D",
"s 	c #595D5F",
"t 	c #E9E9EA",
"u 	c #515658",
"v 	c #5D6163",
"w 	c #D5D6D6",
"x 	c #999B9C",
"y 	c #CDCECF",
"z 	c #696D6E",
"A 	c #8E9292",
"B 	c #EDEDED",
"C 	c #989A9C",
"D 	c #909494",
"E 	c #9B9D9E",
"F 	c #DBDCDC",
"G 	c #525658",
"H 	c #D9DADA",
"I 	c #D3D4D5",
"J 	c #535859",
"K 	c #E2E3E3",
"L 	c #F0F0F0",
"M 	c #ACAEAF",
"N 	c #5E6265",
"O 	c #5A5F60",
"P 	c #B7B8B9",
"Q 	c #ABADAE",
"R 	c #999C9D",
"S 	c #D2D3D4",
"T 	c #949899",
"U 	c #52575A",
"V 	c #B4B6B7",
"W 	c #DADADA",
"X 	c #8C8F90",
"Y 	c #484C4E",
"Z 	c #5C6062",
"` 	c #919495",
" .	c #DEDEDF",
"..	c #ECECEC",
". . . . . . . . . . . . . . . . . . . . . . . . . . . . . . . . ",
"+ + + + + + + + + + + + + + + + + + + + + + + + + + + + + + + + ",
"@ @ @ @ @ @ @ @ @ @ @ @ @ @ @ @ @ @ @ @ @ @ @ @ @ @ @ @ @ @ @ @ ",
"@ @ @ @ @ @ @ @ @ @ @ @ @ @ @ @ @ @ @ @ @ @ @ @ @ @ @ @ @ @ @ @ ",
"# # # # # # # # # # # # # # # # # # # # # # # # # # # # # # # # ",
"# # # # # # # # # # # # # # # # # # # # # # # # # # # # # # # # ",
"# # # # # # # # # # # # # # # # # # # # # # # # # # # # # # # # ",
"$ $ $ $ $ $ $ $ $ $ $ $ $ $ $ $ $ $ $ $ $ $ $ $ $ $ $ $ $ $ $ $ ",
"$ $ $ $ $ $ $ $ $ $ $ $ $ $ $ $ $ $ $ $ $ $ $ $ $ $ $ $ $ $ $ $ ",
"$ $ $ $ $ $ $ $ $ $ $ $ $ $ $ $ $ $ $ $ $ $ $ $ $ $ $ $ $ $ $ $ ",
"% % % % % % % % % % % % & * = - ; > , ' % % % % % % % % % % % % ",
"% % % % % % % % % % % ) ! ~ { ] ^ / ( ; _ % % % % % % % % % % % ",
"% % % % % % % % % % : < [ % % % % % % } | 1 % % % % % % % % % % ",
"2 2 2 2 2 2 2 2 2 3 4 5 2 2 2 2 2 2 2 2 6 ; 7 2 2 2 2 2 2 2 2 2 ",
"2 2 2 2 2 2 2 2 2 8 9 2 2 0 a b b c 0 2 2 ~ d 2 2 2 2 2 2 2 2 2 ",
"2 2 2 2 2 2 2 2 2 e f 2 2 g h h h h c 2 2 } i 2 2 2 2 2 2 2 2 2 ",
"j j j j j j j j k l m j j n h h h h o j j p ! j j j j j j j j j ",
"j j j j j j j j k q m j j r h h h h s j j t u j j j j j j j j j ",
"j j j j j j j j j v w j j g h h h h x j j y z j j j j j j j j j ",
"k k k k k k k k k A x k k B C o o x B k k D E k k k k k k k k k ",
"k k k k k k k k k F G H k k k k k k k k I J K L k k k k k k k k ",
"k k k k k k k k k k M N H k k k k k k w O P L L k k k k k k k k ",
"L L L L L L L L L L L Q G R w 0 0 S T U V L L L L L L L L L L L ",
"L L L L L L L L L L L L W X O Y Y Z `  .L L L L L L L L L L L L ",
"L L L L L L L L L L L L L L L ..B L L L L L L L L L L L L L L L ",
"0 0 0 0 0 0 0 0 0 0 0 0 0 0 0 0 0 0 0 0 0 0 0 0 0 0 0 0 0 0 0 0 ",
"0 0 0 0 0 0 0 0 0 0 0 0 0 0 0 0 0 0 0 0 0 0 0 0 0 0 0 0 0 0 0 0 ",
"0 0 0 0 0 0 0 0 0 0 0 0 0 0 0 0 0 0 0 0 0 0 0 0 0 0 0 0 0 0 0 0 ",
"m m m m m m m m m m m m m m m m m m m m m m m m m m m m m m m m ",
"m m m m m m m m m m m m m m m m m m m m m m m m m m m m m m m m ",
"m m m m m m m m m m m m m m m m m m m m m m m m m m m m m m m m ",
"B B B B B B B B B B B B B B B B B B B B B B B B B B B B B B B B ",
"B B B B B B B B B B B B B B B B B B B B B B B B B B B B B B B B ",
"B B B B B B B B B B B B B B B B B B B B B B B B B B B B B B B B "};
