/* XPM */
static char * stick_prelight_xpm[] = {
"32 34 50 1",
" 	c None",
".	c #8E8E8E",
"+	c #FFFFFF",
"@	c #F7F7F7",
"#	c #F6F6F6",
"$	c #DCDCDC",
"%	c #A8A8A8",
"&	c #9F9F9F",
"*	c #F5F5F5",
"=	c #9E9E9E",
"-	c #F4F4F4",
";	c #9D9D9D",
">	c #A5A5A5",
",	c #CFCFCF",
"'	c #ECECEC",
")	c #FAFAFA",
"!	c #BDBDBD",
"~	c #D4D4D4",
"{	c #B1B1B1",
"]	c #A1A1A1",
"^	c #B2B2B2",
"/	c #BCBCBC",
"(	c #F3F3F3",
"_	c #AEAEAE",
":	c #AFAFAF",
"<	c #D5D5D5",
"[	c #CECECE",
"}	c #F2F2F2",
"|	c #9C9C9C",
"1	c #A0A0A0",
"2	c #F9F9F9",
"3	c #B0B0B0",
"4	c #EBEBEB",
"5	c #F1F1F1",
"6	c #9B9B9B",
"7	c #CDCDCD",
"8	c #D3D3D3",
"9	c #A3A3A3",
"0	c #ADADAD",
"a	c #A2A2A2",
"b	c #BBBBBB",
"c	c #BABABA",
"d	c #F0F0F0",
"e	c #EFEFEF",
"f	c #9A9A9A",
"g	c #A4A4A4",
"h	c #D6D6D6",
"i	c #D7D7D7",
"j	c #EEEEEE",
"k	c #EDEDED",
"................................",
"++++++++++++++++++++++++++++++++",
"@@@@@@@@@@@@@@@@@@@@@@@@@@@@@@@@",
"@@@@@@@@@@@@@@@@@@@@@@@@@@@@@@@@",
"################################",
"################################",
"#####$%&&&&&&&&&&&&&&&&&&%$#####",
"*****%====================%*****",
"*****======================*****",
"*****======================*****",
"-----;;;;;;;>,'))',>;;;;;;;-----",
"-----;;;;;;!#~{]]^~#/;;;;;;-----",
"-----;;;;;!(_;;;;;;:(/;;;;;-----",
"(((((;;;;>#_;;;;;;;;:#>;;;;(((((",
"(((((;;;;,~;;;;;;;;;;<[;;;;(((((",
"(((((;;;;'{;;;;;;;;;;^';;;;(((((",
"}}}}}||||)1||||||||||12||||}}}}}",
"}}}}}||||21||||||||||]2||||}}}}}",
"}}}}}||||'3||||||||||{4||||}}}}}",
"555556666786666666666~7666655555",
"5555566669#0666666660#a666655555",
"5555566666b(06666660(c6666655555",
"ddddd666666b#~3&&{~#c666666ddddd",
"ddddd6666666a74)247a6666666ddddd",
"ddddd6666666666666666666666ddddd",
"eeeeeffffffffffffffffffffffeeeee",
"eeeeegffffffffffffffffffffgeeeee",
"eeeeehgffffffffffffffffffgieeeee",
"jjjjjjjjjjjjjjjjjjjjjjjjjjjjjjjj",
"jjjjjjjjjjjjjjjjjjjjjjjjjjjjjjjj",
"jjjjjjjjjjjjjjjjjjjjjjjjjjjjjjjj",
"kkkkkkkkkkkkkkkkkkkkkkkkkkkkkkkk",
"kkkkkkkkkkkkkkkkkkkkkkkkkkkkkkkk",
"kkkkkkkkkkkkkkkkkkkkkkkkkkkkkkkk"};
