/* XPM */
static char * stick_active_xpm[] = {
"32 34 67 1",
" 	c None",
".	c #8E8E8E",
"+	c #FFFFFF",
"@	c #F7F7F7",
"#	c #F6F6F6",
"$	c #F5F5F5",
"%	c #F4F4F4",
"&	c #E4E4E4",
"*	c #999B9D",
"=	c #65696A",
"-	c #4B5052",
";	c #65696C",
">	c #E5E5E5",
",	c #B9BBBC",
"'	c #525758",
")	c #909394",
"!	c #CECFD0",
"~	c #ECECEC",
"{	c #CECFCF",
"]	c #BBBCBD",
"^	c #585D5E",
"/	c #D4D4D6",
"(	c #D4D4D5",
"_	c #585C5D",
":	c #F3F3F3",
"<	c #D3D4D5",
"[	c #D3D3D4",
"}	c #8F9393",
"|	c #8E9192",
"1	c #999D9E",
"2	c #636969",
"3	c #CDCECF",
"4	c #CCCDCD",
"5	c #F2F2F2",
"6	c #4C5052",
"7	c #E9E9EA",
"8	c #4C5153",
"9	c #E8E8E8",
"0	c #4D5254",
"a	c #64686A",
"b	c #CCCDCE",
"c	c #CBCCCC",
"d	c #65696B",
"e	c #F1F1F1",
"f	c #999B9C",
"g	c #8F9293",
"h	c #8D9091",
"i	c #999C9D",
"j	c #E3E3E3",
"k	c #525658",
"l	c #D1D1D2",
"m	c #D0D1D1",
"n	c #52575A",
"o	c #E2E3E3",
"p	c #F0F0F0",
"q	c #B9BABB",
"r	c #575C5C",
"s	c #BABCBD",
"t	c #B8B9BA",
"u	c #CACBCB",
"v	c #E7E7E8",
"w	c #C9CACB",
"x	c #8C8F90",
"y	c #989B9C",
"z	c #EFEFEF",
"A	c #EEEEEE",
"B	c #EDEDED",
"................................",
"++++++++++++++++++++++++++++++++",
"@@@@@@@@@@@@@@@@@@@@@@@@@@@@@@@@",
"@@@@@@@@@@@@@@@@@@@@@@@@@@@@@@@@",
"################################",
"################################",
"################################",
"$$$$$$$$$$$$$$$$$$$$$$$$$$$$$$$$",
"$$$$$$$$$$$$$$$$$$$$$$$$$$$$$$$$",
"$$$$$$$$$$$$$$$$$$$$$$$$$$$$$$$$",
"%%%%%%%%%%%%&*=--;*>%%%%%%%%%%%%",
"%%%%%%%%%%%,')!~~{)']%%%%%%%%%%%",
"%%%%%%%%%%,^/%%%%%%(_]%%%%%%%%%%",
":::::::::&'<::::::::['>:::::::::",
":::::::::*}::::::::::|1:::::::::",
":::::::::23::::::::::4;:::::::::",
"55555555567555555555578555555555",
"55555555587555555555590555555555",
"555555555ab5555555555cd555555555",
"eeeeeeeeefgeeeeeeeeeehieeeeeeeee",
"eeeeeeeeejkleeeeeeeemnopeeeeeeee",
"eeeeeeeeeeqrleeeeeemrsppeeeeeeee",
"ppppppppppptkhuvvwxkqppppppppppp",
"ppppppppppppoyd68dyopppppppppppp",
"pppppppppppppppppppppppppppppppp",
"zzzzzzzzzzzzzzzzzzzzzzzzzzzzzzzz",
"zzzzzzzzzzzzzzzzzzzzzzzzzzzzzzzz",
"zzzzzzzzzzzzzzzzzzzzzzzzzzzzzzzz",
"AAAAAAAAAAAAAAAAAAAAAAAAAAAAAAAA",
"AAAAAAAAAAAAAAAAAAAAAAAAAAAAAAAA",
"AAAAAAAAAAAAAAAAAAAAAAAAAAAAAAAA",
"BBBBBBBBBBBBBBBBBBBBBBBBBBBBBBBB",
"BBBBBBBBBBBBBBBBBBBBBBBBBBBBBBBB",
"BBBBBBBBBBBBBBBBBBBBBBBBBBBBBBBB"};
