/* XPM */
static char * close_pressed_xpm[] = {
"32 34 10 1",
" 	c None",
".	c #8E8E8E",
"+	c #FFFFFF",
"@	c #EDEDED",
"#	c #D9A7A7",
"$	c #B11919",
"%	c #AA0000",
"&	c #B11A1A",
"*	c #DAA9A9",
"=	c #DAAAAA",
"................................",
"++++++++++++++++++++++++++++++++",
"@@@@@@@@@@@@@@@@@@@@@@@@@@@@@@@@",
"@@@@@@@@@@@@@@@@@@@@@@@@@@@@@@@@",
"@@@@@@@@@@@@@@@@@@@@@@@@@@@@@@@@",
"@@@@@@@@@@@@@@@@@@@@@@@@@@@@@@@@",
"@@@@@#$%%%%%%%%%%%%%%%%%%&*@@@@@",
"@@@@@&%%%%%%%%%%%%%%%%%%%%&@@@@@",
"@@@@@%%%%%%%%%%%%%%%%%%%%%%@@@@@",
"@@@@@%%%%%%%%%%%%%%%%%%%%%%@@@@@",
"@@@@@%%%%%%%%%%%%%%%%%%%%%%@@@@@",
"@@@@@%%%%%%%%%%%%%%%%%%%%%%@@@@@",
"@@@@@%%%%%%%%%%%%%%%%%%%%%%@@@@@",
"@@@@@%%%%%%%++%%%%++%%%%%%%@@@@@",
"@@@@@%%%%%%%+++%%+++%%%%%%%@@@@@",
"@@@@@%%%%%%%%++++++%%%%%%%%@@@@@",
"@@@@@%%%%%%%%%++++%%%%%%%%%@@@@@",
"@@@@@%%%%%%%%%++++%%%%%%%%%@@@@@",
"@@@@@%%%%%%%%++++++%%%%%%%%@@@@@",
"@@@@@%%%%%%%+++%%+++%%%%%%%@@@@@",
"@@@@@%%%%%%%++%%%%++%%%%%%%@@@@@",
"@@@@@%%%%%%%%%%%%%%%%%%%%%%@@@@@",
"@@@@@%%%%%%%%%%%%%%%%%%%%%%@@@@@",
"@@@@@%%%%%%%%%%%%%%%%%%%%%%@@@@@",
"@@@@@%%%%%%%%%%%%%%%%%%%%%%@@@@@",
"@@@@@%%%%%%%%%%%%%%%%%%%%%%@@@@@",
"@@@@@&%%%%%%%%%%%%%%%%%%%%&@@@@@",
"@@@@@*&%%%%%%%%%%%%%%%%%%&=@@@@@",
"@@@@@@@@@@@@@@@@@@@@@@@@@@@@@@@@",
"@@@@@@@@@@@@@@@@@@@@@@@@@@@@@@@@",
"@@@@@@@@@@@@@@@@@@@@@@@@@@@@@@@@",
"@@@@@@@@@@@@@@@@@@@@@@@@@@@@@@@@",
"@@@@@@@@@@@@@@@@@@@@@@@@@@@@@@@@",
"@@@@@@@@@@@@@@@@@@@@@@@@@@@@@@@@"};
