/* XPM */
static char * shade_toggled_pressed_xpm[] = {
"32 34 11 1",
" 	c None",
".	c #8E8E8E",
"+	c #F1F1F1",
"@	c #EDEDED",
"#	c #B8CDE3",
"$	c #4C8CCF",
"%	c #3A81CC",
"&	c #4D8CCF",
"*	c #BACEE3",
"=	c #4E8DCF",
"-	c #FFFFFF",
"................................",
"++++++++++++++++++++++++++++++++",
"@@@@@@@@@@@@@@@@@@@@@@@@@@@@@@@@",
"@@@@@@@@@@@@@@@@@@@@@@@@@@@@@@@@",
"@@@@@@@@@@@@@@@@@@@@@@@@@@@@@@@@",
"@@@@@@@@@@@@@@@@@@@@@@@@@@@@@@@@",
"@@@@@#$%%%%%%%%%%%%%%%%%%&*@@@@@",
"@@@@@&%%%%%%%%%%%%%%%%%%%%=@@@@@",
"@@@@@%%%%%%%%%%%%%%%%%%%%%%@@@@@",
"@@@@@%%%%%%%%%%%%%%%%%%%%%%@@@@@",
"@@@@@%%%%%%%%%%%%%%%%%%%%%%@@@@@",
"@@@@@%%%%%%%%%%%%%%%%%%%%%%@@@@@",
"@@@@@%%%%%%%%%%%%%%%%%%%%%%@@@@@",
"@@@@@%%%%%%%%%%%%%%%%%%%%%%@@@@@",
"@@@@@%%%%%--%%%%%%%%--%%%%%@@@@@",
"@@@@@%%%%%---%%%%%%---%%%%%@@@@@",
"@@@@@%%%%%%---%%%%---%%%%%%@@@@@",
"@@@@@%%%%%%%---%%---%%%%%%%@@@@@",
"@@@@@%%%%%%%%------%%%%%%%%@@@@@",
"@@@@@%%%%%%%%%----%%%%%%%%%@@@@@",
"@@@@@%%%%%%%%%%--%%%%%%%%%%@@@@@",
"@@@@@%%%%%%%%%%%%%%%%%%%%%%@@@@@",
"@@@@@%%%%%%%%%%%%%%%%%%%%%%@@@@@",
"@@@@@%%%%%%%%%%%%%%%%%%%%%%@@@@@",
"@@@@@%%%%%%%%%%%%%%%%%%%%%%@@@@@",
"@@@@@%%%%%%%%%%%%%%%%%%%%%%@@@@@",
"@@@@@&%%%%%%%%%%%%%%%%%%%%=@@@@@",
"@@@@@*&%%%%%%%%%%%%%%%%%%=*@@@@@",
"@@@@@@@@@@@@@@@@@@@@@@@@@@@@@@@@",
"@@@@@@@@@@@@@@@@@@@@@@@@@@@@@@@@",
"@@@@@@@@@@@@@@@@@@@@@@@@@@@@@@@@",
"@@@@@@@@@@@@@@@@@@@@@@@@@@@@@@@@",
"@@@@@@@@@@@@@@@@@@@@@@@@@@@@@@@@",
"@@@@@@@@@@@@@@@@@@@@@@@@@@@@@@@@"};
