/* XPM */
static char * shade_toggled_prelight_xpm[] = {
"32 34 9 1",
" 	c None",
".	c #8E8E8E",
"+	c #F1F1F1",
"@	c #EDEDED",
"#	c #D4D4D4",
"$	c #A2A2A2",
"%	c #999999",
"&	c #FFFFFF",
"*	c #D5D5D5",
"................................",
"++++++++++++++++++++++++++++++++",
"@@@@@@@@@@@@@@@@@@@@@@@@@@@@@@@@",
"@@@@@@@@@@@@@@@@@@@@@@@@@@@@@@@@",
"@@@@@@@@@@@@@@@@@@@@@@@@@@@@@@@@",
"@@@@@@@@@@@@@@@@@@@@@@@@@@@@@@@@",
"@@@@@#$%%%%%%%%%%%%%%%%%%$#@@@@@",
"@@@@@$%%%%%%%%%%%%%%%%%%%%$@@@@@",
"@@@@@%%%%%%%%%%%%%%%%%%%%%%@@@@@",
"@@@@@%%%%%%%%%%%%%%%%%%%%%%@@@@@",
"@@@@@%%%%%%%%%%%%%%%%%%%%%%@@@@@",
"@@@@@%%%%%%%%%%%%%%%%%%%%%%@@@@@",
"@@@@@%%%%%%%%%%%%%%%%%%%%%%@@@@@",
"@@@@@%%%%%%%%%%%%%%%%%%%%%%@@@@@",
"@@@@@%%%%%&&%%%%%%%%&&%%%%%@@@@@",
"@@@@@%%%%%&&&%%%%%%&&&%%%%%@@@@@",
"@@@@@%%%%%%&&&%%%%&&&%%%%%%@@@@@",
"@@@@@%%%%%%%&&&%%&&&%%%%%%%@@@@@",
"@@@@@%%%%%%%%&&&&&&%%%%%%%%@@@@@",
"@@@@@%%%%%%%%%&&&&%%%%%%%%%@@@@@",
"@@@@@%%%%%%%%%%&&%%%%%%%%%%@@@@@",
"@@@@@%%%%%%%%%%%%%%%%%%%%%%@@@@@",
"@@@@@%%%%%%%%%%%%%%%%%%%%%%@@@@@",
"@@@@@%%%%%%%%%%%%%%%%%%%%%%@@@@@",
"@@@@@%%%%%%%%%%%%%%%%%%%%%%@@@@@",
"@@@@@%%%%%%%%%%%%%%%%%%%%%%@@@@@",
"@@@@@$%%%%%%%%%%%%%%%%%%%%$@@@@@",
"@@@@@#$%%%%%%%%%%%%%%%%%%$*@@@@@",
"@@@@@@@@@@@@@@@@@@@@@@@@@@@@@@@@",
"@@@@@@@@@@@@@@@@@@@@@@@@@@@@@@@@",
"@@@@@@@@@@@@@@@@@@@@@@@@@@@@@@@@",
"@@@@@@@@@@@@@@@@@@@@@@@@@@@@@@@@",
"@@@@@@@@@@@@@@@@@@@@@@@@@@@@@@@@",
"@@@@@@@@@@@@@@@@@@@@@@@@@@@@@@@@"};
