/* XPM */
static char * shade_prelight_xpm[] = {
"32 34 8 1",
" 	c None",
".	c #8E8E8E",
"+	c #FFFFFF",
"@	c #EDEDED",
"#	c #D4D4D4",
"$	c #A2A2A2",
"%	c #999999",
"&	c #D5D5D5",
"................................",
"++++++++++++++++++++++++++++++++",
"@@@@@@@@@@@@@@@@@@@@@@@@@@@@@@@@",
"@@@@@@@@@@@@@@@@@@@@@@@@@@@@@@@@",
"@@@@@@@@@@@@@@@@@@@@@@@@@@@@@@@@",
"@@@@@@@@@@@@@@@@@@@@@@@@@@@@@@@@",
"@@@@@#$%%%%%%%%%%%%%%%%%%$#@@@@@",
"@@@@@$%%%%%%%%%%%%%%%%%%%%$@@@@@",
"@@@@@%%%%%%%%%%%%%%%%%%%%%%@@@@@",
"@@@@@%%%%%%%%%%%%%%%%%%%%%%@@@@@",
"@@@@@%%%%%%%%%%%%%%%%%%%%%%@@@@@",
"@@@@@%%%%%%%%%%%%%%%%%%%%%%@@@@@",
"@@@@@%%%%%%%%%%%%%%%%%%%%%%@@@@@",
"@@@@@%%%%%%%%%%++%%%%%%%%%%@@@@@",
"@@@@@%%%%%%%%%++++%%%%%%%%%@@@@@",
"@@@@@%%%%%%%%++++++%%%%%%%%@@@@@",
"@@@@@%%%%%%%+++%%+++%%%%%%%@@@@@",
"@@@@@%%%%%%+++%%%%+++%%%%%%@@@@@",
"@@@@@%%%%%+++%%%%%%+++%%%%%@@@@@",
"@@@@@%%%%%++%%%%%%%%++%%%%%@@@@@",
"@@@@@%%%%%%%%%%%%%%%%%%%%%%@@@@@",
"@@@@@%%%%%%%%%%%%%%%%%%%%%%@@@@@",
"@@@@@%%%%%%%%%%%%%%%%%%%%%%@@@@@",
"@@@@@%%%%%%%%%%%%%%%%%%%%%%@@@@@",
"@@@@@%%%%%%%%%%%%%%%%%%%%%%@@@@@",
"@@@@@%%%%%%%%%%%%%%%%%%%%%%@@@@@",
"@@@@@$%%%%%%%%%%%%%%%%%%%%$@@@@@",
"@@@@@#$%%%%%%%%%%%%%%%%%%$&@@@@@",
"@@@@@@@@@@@@@@@@@@@@@@@@@@@@@@@@",
"@@@@@@@@@@@@@@@@@@@@@@@@@@@@@@@@",
"@@@@@@@@@@@@@@@@@@@@@@@@@@@@@@@@",
"@@@@@@@@@@@@@@@@@@@@@@@@@@@@@@@@",
"@@@@@@@@@@@@@@@@@@@@@@@@@@@@@@@@",
"@@@@@@@@@@@@@@@@@@@@@@@@@@@@@@@@"};
