/* XPM */
static char * stick_pressed_xpm[] = {
"32 34 44 1",
" 	c None",
".	c #8E8E8E",
"+	c #FFFFFF",
"@	c #EDEDED",
"#	c #B8CDE3",
"$	c #4C8CCF",
"%	c #3A81CC",
"&	c #4D8CCF",
"*	c #BACEE3",
"=	c #4E8DCF",
"-	c #4A8BD0",
";	c #9FC1E6",
">	c #D9E7F5",
",	c #F6F9FC",
"'	c #D9E6F5",
")	c #7AAADC",
"!	c #EEF4FA",
"~	c #A9C8E8",
"{	c #639BD6",
"]	c #4286CE",
"^	c #649CD7",
"/	c #AAC8E9",
"(	c #79A9DC",
"_	c #E7F0F9",
":	c #5D97D5",
"<	c #5E98D5",
"[	c #E8F0F9",
"}	c #AAC9E9",
"|	c #9DC0E5",
"1	c #DAE7F5",
"2	c #659CD7",
"3	c #F5F9FC",
"4	c #4386CE",
"5	c #F4F8FC",
"6	c #4487CE",
"7	c #D8E6F5",
"8	c #9EC1E6",
"9	c #ABC9E9",
"0	c #9CC0E5",
"a	c #5F98D5",
"b	c #498AD0",
"c	c #77A8DC",
"d	c #669DD7",
"e	c #78A9DC",
"................................",
"++++++++++++++++++++++++++++++++",
"@@@@@@@@@@@@@@@@@@@@@@@@@@@@@@@@",
"@@@@@@@@@@@@@@@@@@@@@@@@@@@@@@@@",
"@@@@@@@@@@@@@@@@@@@@@@@@@@@@@@@@",
"@@@@@@@@@@@@@@@@@@@@@@@@@@@@@@@@",
"@@@@@#$%%%%%%%%%%%%%%%%%%&*@@@@@",
"@@@@@&%%%%%%%%%%%%%%%%%%%%=@@@@@",
"@@@@@%%%%%%%%%%%%%%%%%%%%%%@@@@@",
"@@@@@%%%%%%%%%%%%%%%%%%%%%%@@@@@",
"@@@@@%%%%%%%-;>,,';-%%%%%%%@@@@@",
"@@@@@%%%%%%)!~{]]^/!(%%%%%%@@@@@",
"@@@@@%%%%%)_:%%%%%%<[(%%%%%@@@@@",
"@@@@@%%%%-!:%%%%%%%%<!-%%%%@@@@@",
"@@@@@%%%%;~%%%%%%%%%%}|%%%%@@@@@",
"@@@@@%%%%1{%%%%%%%%%%2'%%%%@@@@@",
"@@@@@%%%%34%%%%%%%%%%45%%%%@@@@@",
"@@@@@%%%%54%%%%%%%%%%65%%%%@@@@@",
"@@@@@%%%%>{%%%%%%%%%%27%%%%@@@@@",
"@@@@@%%%%8/%%%%%%%%%%90%%%%@@@@@",
"@@@@@%%%%-!<%%%%%%%%a!b%%%%@@@@@",
"@@@@@%%%%%([<%%%%%%a[c%%%%%@@@@@",
"@@@@@%%%%%%(!}244d9!e%%%%%%@@@@@",
"@@@@@%%%%%%%b|7357|b%%%%%%%@@@@@",
"@@@@@%%%%%%%%%%%%%%%%%%%%%%@@@@@",
"@@@@@%%%%%%%%%%%%%%%%%%%%%%@@@@@",
"@@@@@&%%%%%%%%%%%%%%%%%%%%=@@@@@",
"@@@@@*&%%%%%%%%%%%%%%%%%%=*@@@@@",
"@@@@@@@@@@@@@@@@@@@@@@@@@@@@@@@@",
"@@@@@@@@@@@@@@@@@@@@@@@@@@@@@@@@",
"@@@@@@@@@@@@@@@@@@@@@@@@@@@@@@@@",
"@@@@@@@@@@@@@@@@@@@@@@@@@@@@@@@@",
"@@@@@@@@@@@@@@@@@@@@@@@@@@@@@@@@",
"@@@@@@@@@@@@@@@@@@@@@@@@@@@@@@@@"};
