/* XPM */
static char * stick_toggled_pressed_xpm[] = {
"32 34 85 1",
" 	c None",
".	c #8E8E8E",
"+	c #FFFFFF",
"@	c #EDEDED",
"#	c #B8CDE3",
"$	c #4C8CCF",
"%	c #3A81CC",
"&	c #4D8CCF",
"*	c #BACEE3",
"=	c #4E8DCF",
"-	c #4688CF",
";	c #95BBE3",
">	c #CFE0F2",
",	c #EAF2F9",
"'	c #EAF1F9",
")	c #CCDEF1",
"!	c #91B8E2",
"~	c #4386CE",
"{	c #75A7DB",
"]	c #EDF3FA",
"^	c #B1CDEB",
"/	c #6CA1D9",
"(	c #4E8DD1",
"_	c #4E8ED1",
":	c #70A4DA",
"<	c #B7D1EC",
"[	c #6BA0D8",
"}	c #77A8DC",
"|	c #E9F1F9",
"1	c #629AD6",
"2	c #699FD8",
"3	c #EBF2FA",
"4	c #4A8BD0",
"5	c #EEF4FA",
"6	c #5F99D5",
"7	c #669DD7",
"8	c #4487CE",
"9	c #A1C3E6",
"0	c #A8C7E8",
"a	c #3D83CD",
"b	c #9FC2E6",
"c	c #E7F0F9",
"d	c #9FC1E6",
"e	c #93BAE3",
"f	c #DDE9F6",
"g	c #6099D6",
"h	c #A0C2E6",
"i	c #689ED8",
"j	c #D0E1F3",
"k	c #F8FBFD",
"l	c #3E83CD",
"m	c #4588CF",
"n	c #3B81CC",
"o	c #F9FBFD",
"p	c #E8F0F9",
"q	c #E7EFF8",
"r	c #EFF5FB",
"s	c #E2ECF7",
"t	c #5A95D4",
"u	c #9EC1E6",
"v	c #629BD6",
"w	c #D5E4F4",
"x	c #A9C8E8",
"y	c #A7C7E8",
"z	c #9BBFE5",
"A	c #5190D2",
"B	c #5491D2",
"C	c #5B96D4",
"D	c #498AD0",
"E	c #88B2E0",
"F	c #E0EBF7",
"G	c #5995D4",
"H	c #E5EEF8",
"I	c #7BABDD",
"J	c #88B3E0",
"K	c #9CC0E5",
"L	c #5894D3",
"M	c #A2C3E7",
"N	c #7DACDD",
"O	c #5290D2",
"P	c #ABC9E9",
"Q	c #FAFCFD",
"R	c #E3EDF7",
"S	c #A6C6E8",
"T	c #3D82CC",
"................................",
"++++++++++++++++++++++++++++++++",
"@@@@@@@@@@@@@@@@@@@@@@@@@@@@@@@@",
"@@@@@@@@@@@@@@@@@@@@@@@@@@@@@@@@",
"@@@@@@@@@@@@@@@@@@@@@@@@@@@@@@@@",
"@@@@@@@@@@@@@@@@@@@@@@@@@@@@@@@@",
"@@@@@#$%%%%%%%%%%%%%%%%%%&*@@@@@",
"@@@@@&%%%%%%%%%%%%%%%%%%%%=@@@@@",
"@@@@@%%%%%%%%%%%%%%%%%%%%%%@@@@@",
"@@@@@%%%%%%%%%%%%%%%%%%%%%%@@@@@",
"@@@@@%%%%%%%-;>,')!~%%%%%%%@@@@@",
"@@@@@%%%%%%{]^/(_:<'[%%%%%%@@@@@",
"@@@@@%%%%%}|1%%%%%%23/%%%%%@@@@@",
"@@@@@%%%%456%%%%%%%%7'8%%%%@@@@@",
"@@@@@%%%%90%%abccda%%^e%%%%@@@@@",
"@@@@@%%%%fg%%h++++d%%ij%%%%@@@@@",
"@@@@@%%%%kl%%|++++c%%m]%%%%@@@@@",
"@@@@@%%%noa%%p++++q%%~r%%%%@@@@@",
"@@@@@%%%%st%%b++++u%%vw%%%%@@@@@",
"@@@@@%%%%xu%%adccua%%yz%%%%@@@@@",
"@@@@@%%%%A5B%%%%%%%%C]D%%%%@@@@@",
"@@@@@%%%%%EFB%%%%%%GHI%%%%%@@@@@",
"@@@@@%%%%%%J5KL%nCM5N%%%%%%@@@@@",
"@@@@@%%%%%%%OPHQQRS(%%%%%%%@@@@@",
"@@@@@%%%%%%%%%%aT%%%%%%%%%%@@@@@",
"@@@@@%%%%%%%%%%%%%%%%%%%%%%@@@@@",
"@@@@@&%%%%%%%%%%%%%%%%%%%%=@@@@@",
"@@@@@*&%%%%%%%%%%%%%%%%%%=*@@@@@",
"@@@@@@@@@@@@@@@@@@@@@@@@@@@@@@@@",
"@@@@@@@@@@@@@@@@@@@@@@@@@@@@@@@@",
"@@@@@@@@@@@@@@@@@@@@@@@@@@@@@@@@",
"@@@@@@@@@@@@@@@@@@@@@@@@@@@@@@@@",
"@@@@@@@@@@@@@@@@@@@@@@@@@@@@@@@@",
"@@@@@@@@@@@@@@@@@@@@@@@@@@@@@@@@"};
