/* XPM */
static char * stick_toggled_prelight_xpm[] = {
"32 34 61 1",
" 	c None",
".	c #8E8E8E",
"+	c #FFFFFF",
"@	c #EDEDED",
"#	c #D4D4D4",
"$	c #A2A2A2",
"%	c #999999",
"&	c #9F9F9F",
"*	c #C8C8C8",
"=	c #E6E6E6",
"-	c #F4F4F4",
";	c #E4E4E4",
">	c #C6C6C6",
",	c #9D9D9D",
"'	c #B7B7B7",
")	c #F5F5F5",
"!	c #D7D7D7",
"~	c #B3B3B3",
"{	c #A3A3A3",
"]	c #B5B5B5",
"^	c #DADADA",
"/	c #B2B2B2",
"(	c #B9B9B9",
"_	c #F3F3F3",
":	c #ADADAD",
"<	c #B1B1B1",
"[	c #A1A1A1",
"}	c #F6F6F6",
"|	c #ACACAC",
"1	c #B0B0B0",
"2	c #9E9E9E",
"3	c #CECECE",
"4	c #D2D2D2",
"5	c #9B9B9B",
"6	c #CDCDCD",
"7	c #C7C7C7",
"8	c #E7E7E7",
"9	c #FBFBFB",
"0	c #FCFCFC",
"a	c #F2F2F2",
"b	c #F7F7F7",
"c	c #F0F0F0",
"d	c #A9A9A9",
"e	c #AEAEAE",
"f	c #E9E9E9",
"g	c #D1D1D1",
"h	c #CBCBCB",
"i	c #A5A5A5",
"j	c #A6A6A6",
"k	c #AAAAAA",
"l	c #C1C1C1",
"m	c #EFEFEF",
"n	c #F1F1F1",
"o	c #BBBBBB",
"p	c #CCCCCC",
"q	c #A8A8A8",
"r	c #CFCFCF",
"s	c #BCBCBC",
"t	c #D3D3D3",
"u	c #9A9A9A",
"v	c #D5D5D5",
"................................",
"++++++++++++++++++++++++++++++++",
"@@@@@@@@@@@@@@@@@@@@@@@@@@@@@@@@",
"@@@@@@@@@@@@@@@@@@@@@@@@@@@@@@@@",
"@@@@@@@@@@@@@@@@@@@@@@@@@@@@@@@@",
"@@@@@@@@@@@@@@@@@@@@@@@@@@@@@@@@",
"@@@@@#$%%%%%%%%%%%%%%%%%%$#@@@@@",
"@@@@@$%%%%%%%%%%%%%%%%%%%%$@@@@@",
"@@@@@%%%%%%%%%%%%%%%%%%%%%%@@@@@",
"@@@@@%%%%%%%%%%%%%%%%%%%%%%@@@@@",
"@@@@@%%%%%%%&*=--;>,%%%%%%%@@@@@",
"@@@@@%%%%%%')!~{{]^-/%%%%%%@@@@@",
"@@@@@%%%%%(_:%%%%%%<)~%%%%%@@@@@",
"@@@@@%%%%[}|%%%%%%%%1-2%%%%@@@@@",
"@@@@@%%%%34%%56__65%%!7%%%%@@@@@",
"@@@@@%%%%@:%%3++++6%%<8%%%%@@@@@",
"@@@@@%%%%95%%_++++_%%&)%%%%@@@@@",
"@@@@@%%%%05%%_++++a%%,b%%%%@@@@@",
"@@@@@%%%%cd%%6++++6%%ef%%%%@@@@@",
"@@@@@%%%%46%%56__65%%gh%%%%@@@@@",
"@@@@@%%%%i}j%%%%%%%%k)[%%%%@@@@@",
"@@@@@%%%%%lmj%%%%%%dno%%%%%@@@@@",
"@@@@@%%%%%%l}pq%%kr}s%%%%%%@@@@@",
"@@@@@%%%%%%%itn00cg{%%%%%%%@@@@@",
"@@@@@%%%%%%%%%%5u%%%%%%%%%%@@@@@",
"@@@@@%%%%%%%%%%%%%%%%%%%%%%@@@@@",
"@@@@@$%%%%%%%%%%%%%%%%%%%%$@@@@@",
"@@@@@#$%%%%%%%%%%%%%%%%%%$v@@@@@",
"@@@@@@@@@@@@@@@@@@@@@@@@@@@@@@@@",
"@@@@@@@@@@@@@@@@@@@@@@@@@@@@@@@@",
"@@@@@@@@@@@@@@@@@@@@@@@@@@@@@@@@",
"@@@@@@@@@@@@@@@@@@@@@@@@@@@@@@@@",
"@@@@@@@@@@@@@@@@@@@@@@@@@@@@@@@@",
"@@@@@@@@@@@@@@@@@@@@@@@@@@@@@@@@"};
