/* XPM */
static char * stick_active_xpm[] = {
"32 34 41 1",
" 	c None",
".	c #8E8E8E",
"+	c #FFFFFF",
"@	c #EDEDED",
"#	c #DEDEDE",
"$	c #96989A",
"%	c #636769",
"&	c #4B5051",
"*	c #64686A",
"=	c #DFDFDF",
"-	c #B5B6B7",
";	c #515658",
">	c #8D9090",
",	c #C8C9CA",
"'	c #E5E5E5",
")	c #C8C9C9",
"!	c #8D9091",
"~	c #B6B7B8",
"{	c #575C5E",
"]	c #CECFD0",
"^	c #CECECF",
"/	c #575B5C",
"(	c #8C8F90",
"_	c #979A9B",
":	c #626868",
"<	c #C7C8C8",
"[	c #4B5052",
"}	c #E4E4E5",
"|	c #4C5153",
"1	c #E3E3E3",
"2	c #4D5253",
"3	c #65696A",
"4	c #97999A",
"5	c #8B8E8F",
"6	c #989B9C",
"7	c #CDCECE",
"8	c #525759",
"9	c #DFE0E0",
"0	c #B7B9BA",
"a	c #C7C8C9",
"b	c #B7B8B9",
"................................",
"++++++++++++++++++++++++++++++++",
"@@@@@@@@@@@@@@@@@@@@@@@@@@@@@@@@",
"@@@@@@@@@@@@@@@@@@@@@@@@@@@@@@@@",
"@@@@@@@@@@@@@@@@@@@@@@@@@@@@@@@@",
"@@@@@@@@@@@@@@@@@@@@@@@@@@@@@@@@",
"@@@@@@@@@@@@@@@@@@@@@@@@@@@@@@@@",
"@@@@@@@@@@@@@@@@@@@@@@@@@@@@@@@@",
"@@@@@@@@@@@@@@@@@@@@@@@@@@@@@@@@",
"@@@@@@@@@@@@@@@@@@@@@@@@@@@@@@@@",
"@@@@@@@@@@@@#$%&&*$=@@@@@@@@@@@@",
"@@@@@@@@@@@-;>,'')!;~@@@@@@@@@@@",
"@@@@@@@@@@-{]@@@@@@^/~@@@@@@@@@@",
"@@@@@@@@@#;]@@@@@@@@^;=@@@@@@@@@",
"@@@@@@@@@$>@@@@@@@@@@(_@@@@@@@@@",
"@@@@@@@@@:,@@@@@@@@@@<*@@@@@@@@@",
"@@@@@@@@@[}@@@@@@@@@@}|@@@@@@@@@",
"@@@@@@@@@|}@@@@@@@@@@12@@@@@@@@@",
"@@@@@@@@@%,@@@@@@@@@@<3@@@@@@@@@",
"@@@@@@@@@4!@@@@@@@@@@56@@@@@@@@@",
"@@@@@@@@@=;^@@@@@@@@789@@@@@@@@@",
"@@@@@@@@@@~/^@@@@@@7/0@@@@@@@@@@",
"@@@@@@@@@@@~;(<}}a5;b@@@@@@@@@@@",
"@@@@@@@@@@@@9_3[|3_9@@@@@@@@@@@@",
"@@@@@@@@@@@@@@@@@@@@@@@@@@@@@@@@",
"@@@@@@@@@@@@@@@@@@@@@@@@@@@@@@@@",
"@@@@@@@@@@@@@@@@@@@@@@@@@@@@@@@@",
"@@@@@@@@@@@@@@@@@@@@@@@@@@@@@@@@",
"@@@@@@@@@@@@@@@@@@@@@@@@@@@@@@@@",
"@@@@@@@@@@@@@@@@@@@@@@@@@@@@@@@@",
"@@@@@@@@@@@@@@@@@@@@@@@@@@@@@@@@",
"@@@@@@@@@@@@@@@@@@@@@@@@@@@@@@@@",
"@@@@@@@@@@@@@@@@@@@@@@@@@@@@@@@@",
"@@@@@@@@@@@@@@@@@@@@@@@@@@@@@@@@"};
