/* XPM */
static char * stick_prelight_xpm[] = {
"32 34 27 1",
" 	c None",
".	c #8E8E8E",
"+	c #FFFFFF",
"@	c #EDEDED",
"#	c #D4D4D4",
"$	c #A2A2A2",
"%	c #999999",
"&	c #A1A1A1",
"*	c #CDCDCD",
"=	c #EBEBEB",
"-	c #FAFAFA",
";	c #BABABA",
">	c #F6F6F6",
",	c #D2D2D2",
"'	c #AEAEAE",
")	c #9D9D9D",
"!	c #AFAFAF",
"~	c #D3D3D3",
"{	c #B9B9B9",
"]	c #F3F3F3",
"^	c #ABABAB",
"/	c #CCCCCC",
"(	c #ECECEC",
"_	c #F9F9F9",
":	c #9E9E9E",
"<	c #ACACAC",
"[	c #D5D5D5",
"................................",
"++++++++++++++++++++++++++++++++",
"@@@@@@@@@@@@@@@@@@@@@@@@@@@@@@@@",
"@@@@@@@@@@@@@@@@@@@@@@@@@@@@@@@@",
"@@@@@@@@@@@@@@@@@@@@@@@@@@@@@@@@",
"@@@@@@@@@@@@@@@@@@@@@@@@@@@@@@@@",
"@@@@@#$%%%%%%%%%%%%%%%%%%$#@@@@@",
"@@@@@$%%%%%%%%%%%%%%%%%%%%$@@@@@",
"@@@@@%%%%%%%%%%%%%%%%%%%%%%@@@@@",
"@@@@@%%%%%%%%%%%%%%%%%%%%%%@@@@@",
"@@@@@%%%%%%%&*=--=*&%%%%%%%@@@@@",
"@@@@@%%%%%%;>,'))!~>{%%%%%%@@@@@",
"@@@@@%%%%%;]^%%%%%%^]{%%%%%@@@@@",
"@@@@@%%%%&>^%%%%%%%%^>&%%%%@@@@@",
"@@@@@%%%%*,%%%%%%%%%%~/%%%%@@@@@",
"@@@@@%%%%('%%%%%%%%%%!=%%%%@@@@@",
"@@@@@%%%%-)%%%%%%%%%%)_%%%%@@@@@",
"@@@@@%%%%_)%%%%%%%%%%:_%%%%@@@@@",
"@@@@@%%%%='%%%%%%%%%%!=%%%%@@@@@",
"@@@@@%%%%*~%%%%%%%%%%~/%%%%@@@@@",
"@@@@@%%%%&>^%%%%%%%%<>&%%%%@@@@@",
"@@@@@%%%%%{]^%%%%%%<]{%%%%%@@@@@",
"@@@@@%%%%%%{>~!))!~>{%%%%%%@@@@@",
"@@@@@%%%%%%%&/=-_=/&%%%%%%%@@@@@",
"@@@@@%%%%%%%%%%%%%%%%%%%%%%@@@@@",
"@@@@@%%%%%%%%%%%%%%%%%%%%%%@@@@@",
"@@@@@$%%%%%%%%%%%%%%%%%%%%$@@@@@",
"@@@@@#$%%%%%%%%%%%%%%%%%%$[@@@@@",
"@@@@@@@@@@@@@@@@@@@@@@@@@@@@@@@@",
"@@@@@@@@@@@@@@@@@@@@@@@@@@@@@@@@",
"@@@@@@@@@@@@@@@@@@@@@@@@@@@@@@@@",
"@@@@@@@@@@@@@@@@@@@@@@@@@@@@@@@@",
"@@@@@@@@@@@@@@@@@@@@@@@@@@@@@@@@",
"@@@@@@@@@@@@@@@@@@@@@@@@@@@@@@@@"};
