/* XPM */
static char * stick_toggled_active_xpm[] = {
"32 34 80 1",
" 	c None",
".	c #8E8E8E",
"+	c #FFFFFF",
"@	c #EDEDED",
"#	c #E2E3E3",
"$	c #9EA0A1",
"%	c #6C7071",
"&	c #55595B",
"*	c #555A5C",
"=	c #6F7375",
"-	c #A2A3A4",
";	c #E4E4E5",
">	c #BABBBC",
",	c #535759",
"'	c #85888B",
")	c #C1C2C2",
"!	c #DBDBDC",
"~	c #DADBDB",
"{	c #BDBFBF",
"]	c #808485",
"^	c #C2C3C4",
"/	c #B7B9BA",
"(	c #575B5C",
"_	c #CACBCB",
":	c #C4C5C6",
"<	c #54595A",
"[	c #C1C3C3",
"}	c #DEDEDE",
"|	c #515658",
"1	c #CCCDCD",
"2	c #C6C8C8",
"3	c #E3E4E4",
"4	c #949697",
"5	c #8E9192",
"6	c #E9E9E9",
"7	c #959899",
"8	c #575C5E",
"9	c #96989A",
"0	c #A0A2A3",
"a	c #616466",
"b	c #CBCCCD",
"c	c #949798",
"d	c #44494B",
"e	c #C5C6C7",
"f	c #6B6F71",
"g	c #ECECEC",
"h	c #494E50",
"i	c #E3E3E3",
"j	c #484D4F",
"k	c #585C5E",
"l	c #515557",
"m	c #5C6062",
"n	c #D1D1D1",
"o	c #97999A",
"p	c #C9CACB",
"q	c #686C6D",
"r	c #8D9090",
"s	c #8E9292",
"t	c #999B9C",
"u	c #D8D9D9",
"v	c #D6D7D7",
"w	c #CFD1D2",
"x	c #DFE0E0",
"y	c #AAACAD",
"z	c #5D6264",
"A	c #D1D2D2",
"B	c #595F5F",
"C	c #B5B6B7",
"D	c #A9ABAC",
"E	c #989B9C",
"F	c #D2D3D3",
"G	c #939697",
"H	c #525759",
"I	c #B2B4B5",
"J	c #D8D8D8",
"K	c #8B8E8F",
"L	c #474C4E",
"M	c #5B6061",
"N	c #8F9294",
"O	c #EAEAEA",
"................................",
"++++++++++++++++++++++++++++++++",
"@@@@@@@@@@@@@@@@@@@@@@@@@@@@@@@@",
"@@@@@@@@@@@@@@@@@@@@@@@@@@@@@@@@",
"@@@@@@@@@@@@@@@@@@@@@@@@@@@@@@@@",
"@@@@@@@@@@@@@@@@@@@@@@@@@@@@@@@@",
"@@@@@@@@@@@@@@@@@@@@@@@@@@@@@@@@",
"@@@@@@@@@@@@@@@@@@@@@@@@@@@@@@@@",
"@@@@@@@@@@@@@@@@@@@@@@@@@@@@@@@@",
"@@@@@@@@@@@@@@@@@@@@@@@@@@@@@@@@",
"@@@@@@@@@@@@#$%&*=-;@@@@@@@@@@@@",
"@@@@@@@@@@@>,')!~{]*^@@@@@@@@@@@",
"@@@@@@@@@@/(_@@@@@@:<[@@@@@@@@@@",
"@@@@@@@@@}|1@@@@@@@@2*3@@@@@@@@@",
"@@@@@@@@@45@@678896@@'0@@@@@@@@@",
"@@@@@@@@@ab@@cdddd9@@ef@@@@@@@@@",
"@@@@@@@@gh6@@(dddd8@@i,@@@@@@@@@",
"@@@@@@@@gj6@@(ddddk@@;l@@@@@@@@@",
"@@@@@@@@@mn@@7ddddo@@pq@@@@@@@@@",
"@@@@@@@@@ro@@6988o6@@st@@@@@@@@@",
"@@@@@@@@@u|v@@@@@@@@w,x@@@@@@@@@",
"@@@@@@@@@@yzv@@@@@@ABC@@@@@@@@@@",
"@@@@@@@@@@@D|EFggwGHI@@@@@@@@@@@",
"@@@@@@@@@@@@JKBLLMN!@@@@@@@@@@@@",
"@@@@@@@@@@@@@@@6O@@@@@@@@@@@@@@@",
"@@@@@@@@@@@@@@@@@@@@@@@@@@@@@@@@",
"@@@@@@@@@@@@@@@@@@@@@@@@@@@@@@@@",
"@@@@@@@@@@@@@@@@@@@@@@@@@@@@@@@@",
"@@@@@@@@@@@@@@@@@@@@@@@@@@@@@@@@",
"@@@@@@@@@@@@@@@@@@@@@@@@@@@@@@@@",
"@@@@@@@@@@@@@@@@@@@@@@@@@@@@@@@@",
"@@@@@@@@@@@@@@@@@@@@@@@@@@@@@@@@",
"@@@@@@@@@@@@@@@@@@@@@@@@@@@@@@@@",
"@@@@@@@@@@@@@@@@@@@@@@@@@@@@@@@@"};
