/* XPM */
static char * top_right_active_xpm[] = {
"5 34 4 1",
" 	c None",
".	c #8E8E8E",
"+	c #FFFFFF",
"@	c #EDEDED",
".....",
"++++.",
"@@@@.",
"@@@@.",
"@@@@.",
"@@@@.",
"@@@@.",
"@@@@.",
"@@@@.",
"@@@@.",
"@@@@.",
"@@@@.",
"@@@@.",
"@@@@.",
"@@@@.",
"@@@@.",
"@@@@.",
"@@@@.",
"@@@@.",
"@@@@.",
"@@@@.",
"@@@@.",
"@@@@.",
"@@@@.",
"@@@@.",
"@@@@.",
"@@@@.",
"@@@@.",
"@@@@.",
"@@@@.",
"@@@@.",
"@@@@.",
"@@@@.",
"@@@@."};
