/* XPM */
static char * top_left_inactive_xpm[] = {
"5 34 4 1",
" 	c None",
".	c #A6A6A6",
"+	c #FFFFFF",
"@	c #EDEDED",
".....",
".++++",
".@@@@",
".@@@@",
".@@@@",
".@@@@",
".@@@@",
".@@@@",
".@@@@",
".@@@@",
".@@@@",
".@@@@",
".@@@@",
".@@@@",
".@@@@",
".@@@@",
".@@@@",
".@@@@",
".@@@@",
".@@@@",
".@@@@",
".@@@@",
".@@@@",
".@@@@",
".@@@@",
".@@@@",
".@@@@",
".@@@@",
".@@@@",
".@@@@",
".@@@@",
".@@@@",
".@@@@",
".@@@@"};
