/* XPM */
static char * close_prelight_xpm[] = {
"32 35 32 1",
" 	c None",
".	c #282C2C",
"+	c #424B4B",
"@	c #424A4A",
"#	c #414A4A",
"$	c #414949",
"%	c #3A4141",
"&	c #2C3232",
"*	c #2A2F2F",
"=	c #404949",
"-	c #2B3232",
";	c #292F2F",
">	c #404848",
",	c #292E2E",
"'	c #3F4747",
")	c #282D2D",
"!	c #FFFFFF",
"~	c #3E4646",
"{	c #3E4545",
"]	c #3D4545",
"^	c #272C2C",
"/	c #3D4444",
"(	c #3C4343",
"_	c #262B2B",
":	c #3B4242",
"<	c #262A2A",
"[	c #3B4141",
"}	c #343A3A",
"|	c #353A3A",
"1	c #3A4040",
"2	c #394040",
"3	c #393F3F",
"................................",
"++++++++++++++++++++++++++++++++",
"++++++++++++++++++++++++++++++++",
"@@@@@@@@@@@@@@@@@@@@@@@@@@@@@@@@",
"################################",
"################################",
"$$$$$%&******************&%$$$$$",
"=====-;;;;;;;;;;;;;;;;;;;;-=====",
">>>>>,,,,,,,,,,,,,,,,,,,,,,>>>>>",
">>>>>,,,,,,,,,,,,,,,,,,,,,,>>>>>",
">>>>>,,,,,,,,,,,,,,,,,,,,,,>>>>>",
"'''''))))))))))))))))))))))'''''",
"'''''))))))))))))))))))))))'''''",
"''''')))))))!!))))!!)))))))'''''",
"~~~~~)))))))!!!))!!!)))))))~~~~~",
"~~~~~))))))))!!!!!!))))))))~~~~~",
"{{{{{.........!!!!.........{{{{{",
"{{{{{.........!!!!.........{{{{{",
"]]]]]^^^^^^^^!!!!!!^^^^^^^^]]]]]",
"/////^^^^^^^!!!^^!!!^^^^^^^/////",
"/////^^^^^^^!!^^^^!!^^^^^^^/////",
"(((((______________________(((((",
"(((((______________________(((((",
"(((((______________________(((((",
":::::<<<<<<<<<<<<<<<<<<<<<<:::::",
":::::<<<<<<<<<<<<<<<<<<<<<<:::::",
":::::)<<<<<<<<<<<<<<<<<<<<):::::",
"[[[[[}.<<<<<<<<<<<<<<<<<<.|[[[[[",
"%%%%%%%%%%%%%%%%%%%%%%%%%%%%%%%%",
"11111111111111111111111111111111",
"11111111111111111111111111111111",
"22222222222222222222222222222222",
"33333333333333333333333333333333",
"33333333333333333333333333333333",
"................................"};
