/* XPM */
static char * hide_pressed_xpm[] = {
"32 35 32 1",
" 	c None",
".	c #282C2C",
"+	c #424B4B",
"@	c #424A4A",
"#	c #414A4A",
"$	c #414949",
"%	c #3E596F",
"&	c #3A7BBE",
"*	c #3A81CC",
"=	c #3A7ABD",
"-	c #3F596E",
";	c #404949",
">	c #404848",
",	c #3F4747",
"'	c #3E4646",
")	c #404646",
"!	c #3F4545",
"~	c #3E4545",
"{	c #3D4545",
"]	c #3D4444",
"^	c #FFFFFF",
"/	c #3C4343",
"(	c #3B4242",
"_	c #3A7ABC",
":	c #3A79BC",
"<	c #3B4141",
"[	c #3B5368",
"}	c #3A5268",
"|	c #3A4141",
"1	c #3A4040",
"2	c #394040",
"3	c #393F3F",
"................................",
"++++++++++++++++++++++++++++++++",
"++++++++++++++++++++++++++++++++",
"@@@@@@@@@@@@@@@@@@@@@@@@@@@@@@@@",
"################################",
"################################",
"$$$$$%&******************=-$$$$$",
";;;;;=********************=;;;;;",
">>>>>**********************>>>>>",
">>>>>**********************>>>>>",
">>>>>**********************>>>>>",
",,,,,**********************,,,,,",
",,,,,**********************,,,,,",
",,,,,**********************,,,,,",
"'''''**********************'''''",
")''''**********************'''''",
"!~~~~**********************~~~~~",
"~~~~~**********************~~~~~",
"{{{{{**********************{{{{{",
"]]]]]*******^^^^^^^^*******]]]]]",
"]]]]]*******^^^^^^^^*******]]]]]",
"/////**********************/////",
"/////**********************/////",
"/////**********************/////",
"(((((**********************(((((",
"(((((**********************(((((",
"(((((_********************:(((((",
"<<<<<[:******************:}<<<<<",
"||||||||||||||||||||||||||||||||",
"11111111111111111111111111111111",
"11111111111111111111111111111111",
"22222222222222222222222222222222",
"33333333333333333333333333333333",
"33333333333333333333333333333333",
"................................"};
