/* XPM */
static char * top_left_active_xpm[] = {
"5 35 20 1",
" 	c None",
".	c #282C2C",
"+	c #424B4B",
"@	c #424A4A",
"#	c #414A4A",
"$	c #414949",
"%	c #404949",
"&	c #404848",
"*	c #3F4747",
"=	c #3E4646",
"-	c #3E4545",
";	c #3D4545",
">	c #3D4444",
",	c #3C4343",
"'	c #3B4242",
")	c #3B4141",
"!	c #3A4141",
"~	c #3A4040",
"{	c #394040",
"]	c #393F3F",
".....",
".++++",
".++++",
".@@@@",
".####",
".####",
".$$$$",
".%%%%",
".&&&&",
".&&&&",
".&&&&",
".****",
".****",
".****",
".====",
".====",
".----",
".----",
".;;;;",
".>>>>",
".>>>>",
".,,,,",
".,,,,",
".,,,,",
".''''",
".''''",
".''''",
".))))",
".!!!!",
".~~~~",
".~~~~",
".{{{{",
".]]]]",
".]]]]",
"....."};
